<?xml version="1.0" encoding="utf-8"?>
<!-- Generator: Adobe Illustrator 24.0.2, SVG Export Plug-In . SVG Version: 6.00 Build 0)  -->
<svg version="1.1" id="레이어_1" xmlns="http://www.w3.org/2000/svg" xmlns:xlink="http://www.w3.org/1999/xlink" x="0px"
	 y="0px" viewBox="0 0 500 500" style="enable-background:new 0 0 500 500;" xml:space="preserve">
<style type="text/css">
	.st0{fill:none;}
	.st1{fill:#676767;stroke:#676767;stroke-miterlimit:10;}
	.st2{fill:#00AB9A;}
	.st3{fill:#FFFFFF;}
</style>
<rect class="st0" width="500" height="400"/>
<rect x="-3.7" y="510.43" class="st0" width="500" height="100"/>
<g>
	<path class="st1" d="M457.31,248.46H250.5V41.02c0-7.38-5.98-13.39-13.34-13.39C108.43,27.63,3.7,132.7,3.7,261.85
		C3.7,391,108.43,496.08,237.16,496.08c128.74,0,233.48-105.07,233.48-234.23C470.64,254.47,464.66,248.46,457.31,248.46z
		 M237.16,275.24h206.39l-0.18,2.31c-8.05,107.53-98.63,191.76-206.21,191.76c-114.03,0-206.79-93.06-206.79-207.45
		c0-107.92,83.96-198.78,191.15-206.85l2.31-0.18v207.03C223.83,269.23,229.81,275.24,237.16,275.24z"/>
	<path class="st2" d="M303.32,8.95c-6.47,0-11.74,5.29-11.74,11.78v176.71c0,6.5,5.27,11.79,11.74,11.79h176.15
		c6.48,0,11.74-5.29,11.74-11.79C491.21,93.5,406.92,8.95,303.32,8.95z"/>
</g>
<g>
	<path class="st3" d="M127.42,575.57c6.16-0.35,12.32-0.88,18.22-1.58l1.06,10.12c-17.86,3.43-36.61,3.52-50.95,3.52l-1.67-11.35
		c5.81,0,12.41,0,19.18-0.18v-5.9c-8.36-2.02-13.82-7.57-13.82-14.87c0-9.24,8.71-15.66,21.03-15.66c12.23,0,20.94,6.42,20.94,15.66
		c0,7.3-5.54,12.94-13.99,14.87V575.57z M145.1,537.29H95.65v-11h17.6v-8.1h14.26v8.1h17.6V537.29z M112.98,555.33
		c0,3.52,2.99,5.1,7.48,5.1c4.4,0,7.39-1.58,7.39-5.1c0-3.43-2.99-5.02-7.39-5.02C115.98,550.31,112.98,551.9,112.98,555.33z
		 M163.58,517.75v82.45h-14.26v-82.45H163.58z"/>
	<path class="st3" d="M215.59,519.34h13.2v77.53h-13.2v-26.22h-9.5v-11.26h9.5v-9.33h-7.74c-3.7,13.46-11.62,24.46-27.02,33.44
		l-7.92-9.94c15.58-9.42,22-19.8,23.5-35.29h-18.22v-11.18h32.21c0,4.14-0.18,8.01-0.62,11.79h5.81V519.34z M246.3,517.67v82.45
		h-13.46v-82.45H246.3z"/>
	<path class="st3" d="M305.26,565.62c-16.98,3.26-35.81,3.61-49.89,3.7l-1.23-11.09c4.14,0,8.8,0,13.73-0.09v-14.96h13.99v14.52
		c7.66-0.44,15.4-1.06,22.53-2.02L305.26,565.62z M286.34,551.55c1.14-6.69,1.5-12.14,1.58-16.81h-29.04v-11.18h43.12v5.54
		c0,5.98,0,14.08-1.85,24.11L286.34,551.55z M280.1,587.89h44.97v11.18h-59.22v-25.26h14.26V587.89z M331.31,541.95v11.53h-8.8
		v25.78h-14.26v-61.6h14.26v24.29H331.31z"/>
	<path class="st3" d="M355.42,570.11c11.79-0.18,21.38-0.79,31.68-2.64l1.41,11.44c-12.5,2.29-24.55,2.73-40.04,2.73h-7.57v-35.2
		h24.82v-11h-24.9v-11.18h39.42v33.26h-24.82V570.11z M405.93,517.58v82.98h-14.25v-82.98H405.93z"/>
</g>
</svg>
