<?xml version="1.0" encoding="utf-8"?>
<!-- Generator: Adobe Illustrator 24.0.2, SVG Export Plug-In . SVG Version: 6.00 Build 0)  -->
<svg version="1.1" id="레이어_1" xmlns="http://www.w3.org/2000/svg" xmlns:xlink="http://www.w3.org/1999/xlink" x="0px"
	 y="0px" viewBox="0 0 500 500" style="enable-background:new 0 0 500 500;" xml:space="preserve">
<style type="text/css">
	.st0{fill:#676767;}
	.st1{fill:#00AB9A;}
</style>
<g>
	<g>
		<path class="st0" d="M458.32,492.73H41.68V56.35h416.63V492.73z M86.32,448.09h327.35v-347.1H86.32V448.09z"/>
	</g>
	<g>
		<rect x="229.39" y="7.27" class="st0" width="44.64" height="71.4"/>
	</g>
	<g>
		<rect x="17.92" y="208.7" class="st0" width="46.09" height="111.93"/>
	</g>
	<g>
		<rect x="436" y="208.7" class="st0" width="46.09" height="111.93"/>
	</g>
	<g>
		<circle class="st1" cx="161.12" cy="223.52" r="36.21"/>
	</g>
	<g>
		<circle class="st1" cx="337.24" cy="223.52" r="36.21"/>
	</g>
	<g>
		<path class="st1" d="M247.98,410.12c-51.91,0-104.46-36.63-104.46-106.63c0-10.63,8.61-19.24,19.24-19.24
			c10.63,0,19.24,8.61,19.24,19.24c0,21.36,7.05,39.08,20.39,51.25c11.77,10.74,28.38,16.9,45.59,16.9
			c32.39,0,65.08-21.07,65.08-68.15c0-10.63,8.61-19.24,19.24-19.24s19.24,8.61,19.24,19.24c0,41.19-17.69,66.12-32.53,79.78
			C300.19,400.58,274.96,410.12,247.98,410.12z"/>
	</g>
</g>
</svg>
