<?xml version="1.0" encoding="utf-8"?>
<!-- Generator: Adobe Illustrator 24.0.2, SVG Export Plug-In . SVG Version: 6.00 Build 0)  -->
<svg version="1.1" id="레이어_1" xmlns="http://www.w3.org/2000/svg" xmlns:xlink="http://www.w3.org/1999/xlink" x="0px"
	 y="0px" viewBox="0 0 500 500" style="enable-background:new 0 0 500 500;" xml:space="preserve">
<style type="text/css">
	.st0{fill:none;}
	.st1{fill:#676767;}
	.st2{fill:#00AB9A;}
	.st3{fill:#FFFFFF;}
</style>
<rect class="st0" width="500" height="400"/>
<rect y="400" class="st0" width="500" height="100"/>
<g>
	<g>
		<path class="st1" d="M463.24,36.76v426.48H36.76V36.76H463.24 M469.89,9.76H30.11c-11.24,0-20.35,9.11-20.35,20.35v439.78
			c0,11.24,9.11,20.35,20.35,20.35h439.78c11.24,0,20.35-9.11,20.35-20.35V30.11C490.24,18.87,481.13,9.76,469.89,9.76L469.89,9.76z
			"/>
	</g>
	<g>
		<path class="st2" d="M323.82,297.75c-8.41-20.99-28.86-35.86-52.86-35.86h-41.13c-23.91,0-44.32,14.75-52.79,35.63
			c-2.68,6.62-4.23,13.81-4.23,21.39v41.13c0,0.7,0.18,1.34,0.2,2.04h17.65h119.8h17.3c0.03-0.69,0.2-1.34,0.2-2.04v-41.13
			C327.98,311.42,326.44,304.3,323.82,297.75z"/>
		<path class="st2" d="M249.75,250.46c30.68,0,55.55-24.87,55.55-55.55c0-30.68-24.87-55.55-55.55-55.55s-55.55,24.87-55.55,55.55
			C194.2,225.59,219.07,250.46,249.75,250.46z"/>
	</g>
</g>
<g>
	<path class="st3" d="M169.15,563.21h-40.48v-42.5h14.08v10.74h12.32v-10.74h14.08V563.21z M152.35,585.04h42.5v11.18h-56.76v-26.75
		h14.26V585.04z M155.08,542.18h-12.32v9.94h12.32V542.18z M202.68,537.25v11.53h-10.3v26.93h-14.26V514.9h14.26v22.35H202.68z"/>
	<path class="st3" d="M282.06,562.77c-16.98,3.26-35.81,3.61-49.89,3.7l-1.23-11.09c4.14,0,8.8,0,13.73-0.09v-14.96h13.99v14.52
		c7.66-0.44,15.4-1.06,22.53-2.02L282.06,562.77z M263.14,548.69c1.14-6.69,1.5-12.14,1.58-16.81h-29.04v-11.18h43.12v5.54
		c0,5.98,0,14.08-1.85,24.11L263.14,548.69z M256.89,585.04h44.97v11.18h-59.22v-25.26h14.26V585.04z M308.11,539.1v11.53h-8.8
		v25.78h-14.26v-61.6h14.26v24.29H308.11z"/>
	<path class="st3" d="M332.22,567.26c11.79-0.18,21.38-0.79,31.68-2.64l1.41,11.44c-12.5,2.29-24.55,2.73-40.04,2.73h-7.57v-35.2
		h24.82v-11h-24.9v-11.18h39.42v33.26h-24.82V567.26z M382.73,514.73v82.98h-14.26v-82.98H382.73z"/>
</g>
</svg>
