<?xml version="1.0" encoding="utf-8"?>
<!-- Generator: Adobe Illustrator 24.0.2, SVG Export Plug-In . SVG Version: 6.00 Build 0)  -->
<svg version="1.1" id="레이어_1" xmlns="http://www.w3.org/2000/svg" xmlns:xlink="http://www.w3.org/1999/xlink" x="0px"
	 y="0px" viewBox="0 0 500 500" style="enable-background:new 0 0 500 500;" xml:space="preserve">
<style type="text/css">
	.st0{fill:#BBBBBB;}
</style>
<g>
	<g>
		<path class="st0" d="M354.98,344.74c-4.19,0-8.41-1.29-12.03-3.97L242.5,266.49c-5.17-3.82-8.21-9.87-8.21-16.29V101.65
			c0-11.19,9.07-20.26,20.26-20.26c11.19,0,20.26,9.07,20.26,20.26v138.34l92.23,68.2c8.99,6.65,10.89,19.33,4.24,28.34
			C367.31,341.9,361.19,344.74,354.98,344.74z"/>
	</g>
	<g>
		<path class="st0" d="M249.91,493.3C115.86,493.3,6.81,384.25,6.81,250.21S115.86,7.11,249.91,7.11
			C383.95,7.11,493,116.16,493,250.21S383.95,493.3,249.91,493.3z M249.91,47.63c-111.7,0-202.58,90.88-202.58,202.58
			s90.88,202.58,202.58,202.58c111.7,0,202.58-90.88,202.58-202.58S361.61,47.63,249.91,47.63z"/>
	</g>
</g>
</svg>
