<?xml version="1.0" encoding="utf-8"?>
<!-- Generator: Adobe Illustrator 24.0.2, SVG Export Plug-In . SVG Version: 6.00 Build 0)  -->
<svg version="1.1" id="레이어_1" xmlns="http://www.w3.org/2000/svg" xmlns:xlink="http://www.w3.org/1999/xlink" x="0px"
	 y="0px" viewBox="0 0 500 500" style="enable-background:new 0 0 500 500;" xml:space="preserve">
<style type="text/css">
	.st0{fill:none;}
	.st1{fill:#676767;}
	.st2{fill:#FF9000;}
	.st3{fill:#FFFFFF;}
</style>
<rect y="400" class="st0" width="500" height="100"/>
<rect class="st0" width="500" height="400"/>
<g>
	<path class="st1" d="M480.04,191.33c-2.09-10.81-5.03-21.3-8.63-31.52C439.81,70.25,352.61,5.61,250,5.61
		c-129.16,0-234.23,102.27-234.23,227.97c0,125.71,105.08,227.97,234.23,227.97c28.29,0,55.94-4.86,82.19-14.44
		c14.21-5.18,27.59-11.78,40.23-19.37l107.62,66.65V275.44c2.66-13.67,4.2-27.65,4.2-41.86
		C484.23,219.13,482.69,205.04,480.04,191.33z M436.5,417.2l-27.14-16.81l-38.25-23.69c-12.26,9.89-25.79,18.43-40.52,25.13
		c-4.46,2.03-9.02,3.9-13.68,5.6c-21.34,7.79-43.85,11.74-66.91,11.74c-105.15,0-190.7-83.26-190.7-185.6
		c0-102.33,85.55-185.59,190.7-185.59c83.76,0,154.92,52.9,180.47,126.12c6.53,18.7,10.23,38.66,10.23,59.48
		c0,12.92-1.52,25.6-4.2,37.94v99.4V417.2z"/>
	<circle class="st2" cx="153.33" cy="235.56" r="39.68"/>
	<circle class="st2" cx="255.15" cy="235.56" r="39.68"/>
	<circle class="st2" cx="356.98" cy="235.56" r="39.68"/>
</g>
<g>
	<path class="st3" d="M141.76,562.44c-8.27-2.64-13.9-7.57-17.34-13.9c-3.61,7.39-9.59,13.29-18.66,16.28l-7.57-11.09
		c14.52-4.66,18.83-15.66,18.83-26.05v-6.86h14.52V529c0,9.24,4.05,18.57,17.6,22.53L141.76,562.44z M166.49,582.5
		c0,10.3-11.09,16.46-28.42,16.46c-17.25,0-28.33-6.16-28.33-16.46c0-10.38,11.09-16.46,28.33-16.46
		C155.4,566.05,166.49,572.12,166.49,582.5z M152.32,582.5c0-3.96-4.66-5.63-14.26-5.63c-9.5,0-14.17,1.67-14.17,5.63
		s4.66,5.54,14.17,5.54C147.66,588.05,152.32,586.46,152.32,582.5z M175.82,534.28v11.53h-10.3v18.57h-14.26v-48.05h14.26v17.95
		H175.82z"/>
	<path class="st3" d="M228.35,557.86c-9.33,2.11-18.57,2.55-37.58,2.55h-7.13v-39.25h36.96v11.18h-22.79v16.81
		c13.82-0.18,21.3-0.7,29.21-2.38L228.35,557.86z M191.75,565.43h54.73v32.56h-54.73V565.43z M205.74,586.99h26.84v-10.56h-26.84
		V586.99z M256.78,545.37h-10.3v16.9h-14.26v-46.02h14.26v17.69h10.3V545.37z"/>
	<path class="st3" d="M311.51,564.2c-16.98,3.26-35.81,3.61-49.89,3.7l-1.23-11.09c4.14,0,8.8,0,13.73-0.09v-14.96h13.99v14.52
		c7.66-0.44,15.4-1.06,22.53-2.02L311.51,564.2z M292.59,550.12c1.14-6.69,1.5-12.14,1.58-16.81h-29.04v-11.18h43.12v5.54
		c0,5.98,0,14.08-1.85,24.11L292.59,550.12z M286.35,586.46h44.97v11.18h-59.22v-25.26h14.26V586.46z M337.56,540.53v11.53h-8.8
		v25.78h-14.26v-61.6h14.26v24.29H337.56z"/>
	<path class="st3" d="M361.67,568.69c11.79-0.18,21.38-0.79,31.68-2.64l1.41,11.44c-12.5,2.29-24.55,2.73-40.04,2.73h-7.57v-35.2
		h24.82v-11h-24.9v-11.18h39.42v33.26h-24.82V568.69z M412.18,516.15v82.98h-14.25v-82.98H412.18z"/>
</g>
</svg>
