<?xml version="1.0" encoding="utf-8"?>
<!-- Generator: Adobe Illustrator 24.0.2, SVG Export Plug-In . SVG Version: 6.00 Build 0)  -->
<svg version="1.1" id="레이어_1" xmlns="http://www.w3.org/2000/svg" xmlns:xlink="http://www.w3.org/1999/xlink" x="0px"
	 y="0px" viewBox="0 0 500 500" style="enable-background:new 0 0 500 500;" xml:space="preserve">
<style type="text/css">
	.st0{fill:none;}
	.st1{fill:#676767;}
	.st2{fill:#8862D5;}
	.st3{fill:#FFFFFF;}
</style>
<rect class="st0" width="500" height="400"/>
<rect y="400" class="st0" width="500" height="100"/>
<g>
	<g>
		<rect x="94.21" y="110.68" class="st1" width="167.92" height="27.32"/>
		<rect x="94.21" y="179.07" class="st1" width="126.96" height="26.62"/>
	</g>
	<g>
		<polygon class="st1" points="40.73,456.38 40.73,43.62 359.83,43.62 359.83,104.78 391.89,104.78 391.89,11.27 8.67,11.27 
			8.67,488.73 144.3,488.73 144.3,456.38 		"/>
	</g>
	<path class="st2" d="M389.73,331.01l-1.83-0.46l1.62-0.94c27.53-16.02,44.64-45.59,44.64-77.18c0-49.28-40.19-89.37-89.59-89.37
		c-49.4,0-89.6,40.09-89.6,89.37c0,31.58,17.11,61.16,44.64,77.18l1.62,0.94l-1.83,0.46c-60.78,15.09-101.61,85.3-101.61,141.4
		v12.46v2.35h2.33h25h2.2l0.12-2.22l1.2-21.35l0-6.82c7.25-47.92,46.72-99.11,93.93-99.11h43.98c47.22,0,86.69,51.19,93.92,99
		l0.91,8.63l0.39,19.56l0.05,2.3h2.28H489h2.33v-2.35v-12.46C491.33,416.31,450.5,346.1,389.73,331.01z M344.56,192.68
		c33.06,0,59.95,26.81,59.95,59.76c0,32.95-26.89,59.75-59.95,59.75c-33.06,0-59.96-26.81-59.96-59.75
		C284.6,219.48,311.5,192.68,344.56,192.68z"/>
	<rect x="203.32" y="454.55" class="st2" width="285.07" height="32.66"/>
</g>
<g>
	<path class="st3" d="M168.64,574.23v11.35H93.93v-11.35h30.18v-17.07h-22.26v-39.69h14.26v28.51h44.97v11.17h-22.7v17.07H168.64z"
		/>
	<path class="st3" d="M249.6,567.89h-30.54v26.22h-14.26v-26.22h-29.92v-11.18h74.71V567.89z M241.07,549.15h-58.08v-33.88h58.08
		V549.15z M227.08,526.36h-30.1v11.7h30.1V526.36z"/>
	<path class="st3" d="M305.4,559.44c-16.98,3.26-35.82,3.61-49.89,3.7l-1.23-11.09c4.14,0,8.8,0,13.73-0.09V537h13.99v14.52
		c7.66-0.44,15.4-1.06,22.53-2.02L305.4,559.44z M286.48,545.36c1.14-6.69,1.5-12.14,1.58-16.81h-29.04v-11.18h43.12v5.54
		c0,5.98,0,14.08-1.85,24.11L286.48,545.36z M280.23,581.71h44.97v11.18h-59.22v-25.26h14.25V581.71z M331.44,535.77v11.53h-8.8
		v25.78h-14.26v-61.6h14.26v24.29H331.44z"/>
	<path class="st3" d="M355.56,563.93c11.79-0.18,21.38-0.79,31.68-2.64l1.41,11.44c-12.5,2.29-24.55,2.73-40.04,2.73h-7.57v-35.2
		h24.82v-11h-24.9v-11.18h39.42v33.26h-24.82V563.93z M406.07,511.4v82.98h-14.26V511.4H406.07z"/>
</g>
</svg>
