<?xml version="1.0" encoding="utf-8"?>
<!-- Generator: Adobe Illustrator 24.0.2, SVG Export Plug-In . SVG Version: 6.00 Build 0)  -->
<svg version="1.1" id="레이어_1" xmlns="http://www.w3.org/2000/svg" xmlns:xlink="http://www.w3.org/1999/xlink" x="0px"
	 y="0px" viewBox="0 0 500 500" style="enable-background:new 0 0 500 500;" xml:space="preserve">
<style type="text/css">
	.st0{fill:none;}
	.st1{fill:#FFFFFF;}
	.st2{fill:#676767;}
	.st3{fill:#00AB9A;}
</style>
<rect y="400" class="st0" width="500" height="100"/>
<rect class="st0" width="500" height="400"/>
<g>
	<path class="st1" d="M137.93,562.4c-8.89-2.55-14.7-7.48-18.3-13.64c-3.61,7.57-9.86,13.73-19.45,16.72l-7.13-11.18
		c13.11-4.22,18.04-13.64,18.83-22.62H96.66v-11.18h44.88v11.18h-14.96c0.88,8.1,5.54,16.02,18.13,19.62L137.93,562.4z
		 M161.25,581.41c0,10.38-11.09,16.54-28.42,16.54c-17.25,0-28.33-6.16-28.33-16.54s11.09-16.54,28.33-16.54
		C150.16,564.86,161.25,571.03,161.25,581.41z M147.08,581.41c0-4.05-4.66-5.63-14.26-5.63c-9.5,0-14.17,1.58-14.17,5.63
		s4.66,5.72,14.17,5.72C142.42,587.13,147.08,585.46,147.08,581.41z M170.58,533.19v11.53h-10.3v19.1h-14.26v-48.49h14.26v17.86
		H170.58z"/>
	<path class="st1" d="M250.48,573.14h-30.54v24.73h-14.26v-24.73h-29.92v-11.09h74.71V573.14z M242.04,555.27h-58.25v-36.96h14.08
		v8.27h30.1v-8.27h14.08V555.27z M227.96,537.59h-30.1v6.51h30.1V537.59z"/>
	<path class="st1" d="M306.28,563.19c-16.98,3.26-35.81,3.61-49.89,3.7l-1.23-11.09c4.14,0,8.8,0,13.73-0.09v-14.96h13.99v14.52
		c7.66-0.44,15.4-1.06,22.53-2.02L306.28,563.19z M287.36,549.11c1.14-6.69,1.5-12.14,1.58-16.81H259.9v-11.18h43.12v5.54
		c0,5.98,0,14.08-1.85,24.11L287.36,549.11z M281.11,585.46h44.97v11.18h-59.22v-25.26h14.26V585.46z M332.32,539.52v11.53h-8.8
		v25.78h-14.26v-61.6h14.26v24.29H332.32z"/>
	<path class="st1" d="M356.44,567.68c11.79-0.18,21.38-0.79,31.68-2.64l1.41,11.44c-12.5,2.29-24.55,2.73-40.04,2.73h-7.57v-35.2
		h24.82v-11h-24.9v-11.18h39.42v33.26h-24.82V567.68z M406.95,515.15v82.98h-14.25v-82.98H406.95z"/>
</g>
<g>
	<g>
		<path class="st2" d="M412.21,489.17H155.46c-8.96,0-16.23-7.26-16.23-16.23V27.06c0-8.96,7.26-16.23,16.23-16.23h256.75
			c46.17,0,83.74,35.06,83.74,78.14v322.05C495.95,454.11,458.38,489.17,412.21,489.17z M171.69,456.72h240.52
			c28.28,0,51.29-20.5,51.29-45.69V88.98c0-25.2-23.01-45.69-51.29-45.69H171.69V456.72z"/>
	</g>
	<g>
		<path class="st2" d="M159.99,489.17H73.66c-38.38,0-69.61-35.06-69.61-78.14V88.98c0-43.09,31.23-78.14,69.61-78.14h86.32
			c8.96,0,16.23,7.26,16.23,16.23v445.89C176.21,481.9,168.95,489.17,159.99,489.17z M73.66,43.28c-20.49,0-37.16,20.5-37.16,45.69
			v322.05c0,25.2,16.67,45.69,37.16,45.69h70.1V43.28H73.66z"/>
	</g>
	<g>
		<path class="st3" d="M370.25,187.13h-99.94c-8.96,0-16.23-7.26-16.23-16.23s7.26-16.23,16.23-16.23h99.94
			c8.96,0,16.23,7.26,16.23,16.23S379.21,187.13,370.25,187.13z"/>
	</g>
	<g>
		<path class="st3" d="M370.25,304.37h-99.94c-8.96,0-16.23-7.26-16.23-16.23c0-8.96,7.26-16.23,16.23-16.23h99.94
			c8.96,0,16.23,7.26,16.23,16.23C386.48,297.1,379.21,304.37,370.25,304.37z"/>
	</g>
</g>
</svg>
