<?xml version="1.0" encoding="utf-8"?>
<!-- Generator: Adobe Illustrator 24.0.2, SVG Export Plug-In . SVG Version: 6.00 Build 0)  -->
<svg version="1.1" id="레이어_1" xmlns="http://www.w3.org/2000/svg" xmlns:xlink="http://www.w3.org/1999/xlink" x="0px"
	 y="0px" viewBox="0 0 500 500" style="enable-background:new 0 0 500 500;" xml:space="preserve">
<style type="text/css">
	.st0{fill:none;}
	.st1{fill:none;stroke:#00AB9A;stroke-width:20;stroke-linecap:round;stroke-linejoin:round;}
	.st2{fill:#676767;}
	.st3{fill:#00AB9A;}
	.st4{fill:#FFFFFF;}
</style>
<rect class="st0" width="500" height="400"/>
<rect y="400" class="st0" width="500" height="100"/>
<g>
	<line class="st1" x1="12.28" y1="483.14" x2="487.72" y2="483.14"/>
	<path class="st2" d="M458.89,49.99v343.87H41.11V49.99H458.89 M460.16,16.86H39.84c-17.59,0-31.86,14.26-31.86,31.86v346.42
		c0,17.59,14.26,31.86,31.86,31.86h420.33c17.59,0,31.86-14.26,31.86-31.86V48.71C492.02,31.12,477.76,16.86,460.16,16.86
		L460.16,16.86z"/>
	<path class="st2" d="M310.81,278.49v12.74c3.59,0,6.92,1.94,8.68,5.06l79.86,141.48c1.31,2.31,1.63,4.99,0.92,7.55
		c-0.71,2.56-2.38,4.69-4.69,5.99c-1.51,0.85-3.15,1.29-4.87,1.29c-3.59,0-6.92-1.94-8.68-5.06l-79.86-141.48
		c-1.31-2.31-1.63-4.99-0.92-7.55c0.71-2.56,2.38-4.69,4.69-5.99c1.51-0.85,3.15-1.29,4.87-1.29L310.81,278.49 M310.81,278.49
		c-3.78,0-7.61,0.94-11.13,2.93c-10.91,6.16-14.76,20-8.6,30.9l79.86,141.48c4.17,7.39,11.86,11.54,19.78,11.54
		c3.78,0,7.61-0.95,11.13-2.93c10.91-6.16,14.76-20,8.6-30.9l-79.86-141.48C326.42,282.64,318.73,278.49,310.81,278.49
		L310.81,278.49z"/>
	<path class="st3" d="M119.76,153.65c0-12.53,10.16-22.68,22.68-22.68h108.08c12.53,0,22.68,10.16,22.68,22.68
		s-10.16,22.68-22.68,22.68H142.44C129.92,176.34,119.76,166.18,119.76,153.65z"/>
	<path class="st3" d="M123.04,252.61c0-12.53,10.16-22.68,22.68-22.68h60.4c12.53,0,22.68,10.16,22.68,22.68
		s-10.16,22.68-22.68,22.68h-60.4C133.2,275.29,123.04,265.14,123.04,252.61z"/>
</g>
<g>
	<path class="st4" d="M177.75,565.26h-30.62v27.28h-14.26v-27.28h-29.92v-11.35h74.71L177.75,565.26z M170.1,549.42
		c-14.87-2.11-24.46-8.45-29.74-16.72c-5.28,8.27-14.87,14.61-29.74,16.72l-5.46-11.35c21.12-2.82,27.63-13.99,27.63-22.53v-3.52
		h15.14v3.52c0,8.54,6.51,19.71,27.63,22.53L170.1,549.42z"/>
	<path class="st4" d="M253.61,509.91v44.44h-14.26V538.6h-11.26c-2.46,8.62-10.82,14.52-21.3,14.52c-12.5,0-22.09-8.45-22.09-20.06
		c0-11.53,9.59-19.98,22.09-19.98c10.3,0,18.57,5.72,21.21,14.17h11.35v-17.33H253.61z M239.53,557.61h14.08v33.97h-55.88v-33.97
		h14.08v6.42h27.72V557.61z M215.33,533.06c0-5.46-3.61-8.27-8.54-8.27c-4.93,0-8.54,2.82-8.54,8.27c0,5.46,3.61,8.36,8.54,8.36
		C211.72,541.42,215.33,538.51,215.33,533.06z M239.53,574.77h-27.72v5.63h27.72V574.77z"/>
	<path class="st4" d="M314.42,557.78c-16.98,3.26-35.82,3.61-49.89,3.7l-1.23-11.09c4.14,0,8.8,0,13.73-0.09v-14.96h13.99v14.52
		c7.66-0.44,15.4-1.06,22.53-2.02L314.42,557.78z M295.5,543.7c1.14-6.69,1.5-12.14,1.58-16.81h-29.04v-11.18h43.12v5.54
		c0,5.98,0,14.08-1.85,24.11L295.5,543.7z M289.25,580.05h44.97v11.18h-59.22v-25.26h14.25V580.05z M340.46,534.11v11.53h-8.8v25.78
		h-14.26v-61.6h14.26v24.29H340.46z"/>
	<path class="st4" d="M364.58,562.27c11.79-0.18,21.38-0.79,31.68-2.64l1.41,11.44c-12.5,2.29-24.55,2.73-40.04,2.73h-7.57v-35.2
		h24.82v-11h-24.9v-11.18h39.42v33.26h-24.82V562.27z M415.09,509.74v82.98h-14.26v-82.98H415.09z"/>
</g>
</svg>
