<?xml version="1.0" encoding="utf-8"?>
<!-- Generator: Adobe Illustrator 24.0.2, SVG Export Plug-In . SVG Version: 6.00 Build 0)  -->
<svg version="1.1" id="레이어_1" xmlns="http://www.w3.org/2000/svg" xmlns:xlink="http://www.w3.org/1999/xlink" x="0px"
	 y="0px" viewBox="0 0 500 500" style="enable-background:new 0 0 500 500;" xml:space="preserve">
<style type="text/css">
	.st0{fill:none;}
	.st1{fill:#676767;}
	.st2{fill:#FF9000;}
	.st3{fill:#FFFFFF;}
</style>
<rect class="st0" width="500" height="400"/>
<rect y="400" class="st0" width="500" height="100"/>
<g>
	<g>
		<g>
			<g>
				<path class="st1" d="M379.15,492.52h-258.3c-44.29,0-80.33-36.04-80.33-80.33V140.14c0-44.29,30.99-80.33,69.08-80.33
					c37.77,0,64.96,14.22,68.66,35.16c5.04,2.9,19.8,7.97,43.68,7.97h56.12c23.87,0,38.63-5.07,43.68-7.97
					c3.69-20.94,30.88-35.16,68.66-35.16c38.1,0,69.09,36.04,69.09,80.33v272.06C459.48,456.48,423.44,492.52,379.15,492.52z
					 M109.6,96.88c-17.35,0-32.01,19.81-32.01,43.25v272.06c0,23.85,19.41,43.25,43.25,43.25h258.3c23.85,0,43.25-19.41,43.25-43.25
					V140.14c0-23.44-14.66-43.25-32.02-43.25c-17.51,0-28.48,4.33-32.25,6.81c-3.54,26.72-44.65,36.32-80.09,36.32h-56.12
					c-35.43,0-76.55-9.6-80.09-36.32C138.08,101.22,127.11,96.88,109.6,96.88z"/>
			</g>
		</g>
		<g>
			<g>
				<path class="st1" d="M278.05,140.02h-56.12c-44.29,0-80.33-29.73-80.33-66.27s36.04-66.27,80.33-66.27h56.12
					c44.29,0,80.33,29.73,80.33,66.27S322.34,140.02,278.05,140.02z M221.94,44.56c-23.04,0-43.25,13.64-43.25,29.19
					s20.21,29.19,43.25,29.19h56.12c23.04,0,43.25-13.64,43.25-29.19s-20.21-29.19-43.25-29.19H221.94z"/>
			</g>
		</g>
	</g>
	<g>
		<path class="st2" d="M302.95,262.45H195.53c-13.65,0-24.72-11.07-24.72-24.72s11.07-24.72,24.72-24.72h107.42
			c13.65,0,24.72,11.07,24.72,24.72S316.6,262.45,302.95,262.45z"/>
	</g>
	<g>
		<path class="st2" d="M302.95,366.63H195.53c-13.65,0-24.72-11.07-24.72-24.72c0-13.65,11.07-24.72,24.72-24.72h107.42
			c13.65,0,24.72,11.07,24.72,24.72C327.67,355.57,316.6,366.63,302.95,366.63z"/>
	</g>
</g>
<g>
	<path class="st3" d="M130.63,560.4c-4.84,12.85-15.93,21.47-34.32,26.4l-5.46-11.18c18.3-4.49,25.78-12.14,27.28-21.74H95.52
		v-11.18h38.1c0,2.2-0.09,4.49-0.35,6.51h12.67v-11.88h14.26v46.46h-14.26v-6.25h-16.19v-11.26h16.19v-5.9H130.63z M160.72,602.2
		c0,10.56-11.44,17.25-28.16,17.25c-16.81,0-28.25-6.69-28.25-17.25s11.44-17.25,28.25-17.25
		C149.28,584.95,160.72,591.64,160.72,602.2z M146.64,602.2c0-4.4-5.1-6.42-14.08-6.42c-9.06,0-14.17,2.02-14.17,6.42
		c0,4.4,5.1,6.42,14.17,6.42C141.54,608.62,146.64,606.6,146.64,602.2z"/>
	<path class="st3" d="M210,576.68c-3.96,3.7-9.42,5.9-15.66,5.9c-12.41,0-22.09-8.71-22.09-20.5c0-11.88,9.68-20.59,22.09-20.59
		c6.42,0,11.97,2.29,15.93,6.16h16.63v-10.21h14.26v48.05H226.9v-8.8H210z M241.51,603.52c0,10.47-11.18,16.54-28.78,16.54
		c-17.51,0-28.69-6.07-28.69-16.54s11.18-16.54,28.69-16.54C230.33,586.97,241.51,593.04,241.51,603.52z M194.34,570.69
		c5.02,0,8.62-2.9,8.62-8.62c0-5.81-3.61-8.62-8.62-8.62c-5.02,0-8.62,2.82-8.62,8.62C185.72,567.79,189.32,570.69,194.34,570.69z
		 M227.43,603.52c0-4.05-4.75-5.72-14.7-5.72c-9.94,0-14.61,1.67-14.61,5.72c0,4.14,4.66,5.72,14.61,5.72
		C222.68,609.24,227.43,607.65,227.43,603.52z M226.9,558.81h-10.74c0.18,1.06,0.26,2.11,0.26,3.26c0,1.23-0.09,2.29-0.26,3.43
		h10.74V558.81z"/>
	<path class="st3" d="M297.48,556.26h-44.79v-11h16.02v-8.18h14.26v8.18h14.52V556.26z M275.74,591.29
		c-11.35,0-19.71-6.86-19.71-16.46c0-9.68,8.36-16.46,19.71-16.46c11.44,0,19.8,6.78,19.8,16.46
		C295.54,584.42,287.18,591.29,275.74,591.29z M323.88,607.56v11.18h-57.29v-23.5h14.26v12.32H323.88z M275.74,580.46
		c3.78,0,6.42-1.76,6.42-5.63s-2.64-5.72-6.42-5.72c-3.7,0-6.34,1.85-6.34,5.72S272.04,580.46,275.74,580.46z M307.86,586.18h-8.98
		V575h8.98v-6.69h-8.98v-11.18h8.98v-19.71h14.25v62.83h-14.25V586.18z"/>
	<path class="st3" d="M383.54,588.47c-17.07,2.99-35.55,3.17-49.89,3.17l-1.58-10.56c5.63,0,11.88,0,18.39-0.18v-3.78
		c-8.36-1.5-13.55-5.46-13.55-11.26c0-7.39,8.1-11.88,20.59-11.88c12.5,0,20.59,4.49,20.59,11.88c0,5.81-5.1,9.86-13.38,11.35v3.34
		c6.16-0.35,12.14-0.79,17.86-1.5L383.54,588.47z M380.64,552.65h-46.38v-10.03h16.19v-5.9h14.26v5.9h15.93V552.65z M400.08,606.95
		c0,8.62-10.56,13.29-28.78,13.29c-18.13,0-28.69-4.66-28.69-13.29c0-8.71,10.56-13.38,28.69-13.38
		C389.52,593.57,400.08,598.24,400.08,606.95z M350.36,565.85c0,2.11,2.46,2.9,7.13,2.9s7.13-0.79,7.13-2.9s-2.46-2.9-7.13-2.9
		S350.36,563.74,350.36,565.85z M385.74,606.95c0-2.46-3.96-3.17-14.43-3.17c-10.38,0-14.34,0.7-14.34,3.17
		c0,2.38,3.96,3.08,14.43,3.08C381.78,610.03,385.74,609.32,385.74,606.95z M409.15,560.05v11.53h-9.5v21.38h-14.26v-55.53h14.26
		v22.62H409.15z"/>
</g>
</svg>
