<?xml version="1.0" encoding="utf-8"?>
<!-- Generator: Adobe Illustrator 24.0.2, SVG Export Plug-In . SVG Version: 6.00 Build 0)  -->
<svg version="1.1" id="레이어_1" xmlns="http://www.w3.org/2000/svg" xmlns:xlink="http://www.w3.org/1999/xlink" x="0px"
	 y="0px" viewBox="0 0 500 500" style="enable-background:new 0 0 500 500;" xml:space="preserve">
<style type="text/css">
	.st0{fill:none;}
	.st1{fill:#676767;}
	.st2{fill:#00AB9A;}
	.st3{fill:#FFFFFF;}
</style>
<rect class="st0" width="500" height="400"/>
<rect y="400" class="st0" width="500" height="100"/>
<g>
	<g>
		<path class="st1" d="M404.19,19.11H95.81c-47.78,0-86.67,38.88-86.67,86.67v112.91c0,47.79,38.89,86.67,86.67,86.67h11.4v-34.91
			h-11.4c-28.55,0-51.76-23.22-51.76-51.76V105.78c0-28.54,23.21-51.76,51.76-51.76h308.39c28.55,0,51.76,23.22,51.76,51.76v112.91
			c0,28.54-23.21,51.76-51.76,51.76h-12.52v34.91h12.52c47.78,0,86.67-38.88,86.67-86.67V105.78
			C490.86,57.99,451.97,19.11,404.19,19.11z"/>
	</g>
	<rect x="83.29" y="143.14" class="st1" width="333.76" height="38.2"/>
	<g>
		<path class="st1" d="M335.92,445.98H157.69V180.87h-34.91V449c0,17.61,14.28,31.89,31.89,31.89h184.26
			c17.61,0,31.89-14.28,31.89-31.89V180.87h-34.91V445.98z"/>
		<path class="st2" d="M295.05,390.32H262.4c-0.33,0-0.61-0.27-0.61-0.61V207.83c0-0.33,0.27-0.61,0.61-0.61h32.65
			c0.33,0,0.61,0.27,0.61,0.61v181.89C295.66,390.05,295.39,390.32,295.05,390.32z"/>
	</g>
</g>
<g>
	<path class="st3" d="M166.14,594.58h-30.62v27.28h-14.26v-27.28H91.34v-11.35h74.71L166.14,594.58z M158.48,578.74
		c-14.87-2.11-24.46-8.45-29.74-16.72c-5.28,8.27-14.87,14.61-29.74,16.72l-5.46-11.35c21.12-2.82,27.63-13.99,27.63-22.53v-3.52
		h15.14v3.52c0,8.54,6.51,19.71,27.63,22.53L158.48,578.74z"/>
	<path class="st3" d="M219.73,577.86c-13.2,2.64-26.05,3.34-37.4,3.34h-7.13v-38.72h14.17v27.1c9.06-0.26,18.83-1.14,28.78-3.08
		L219.73,577.86z M223.69,586.39h14.08v34.5h-55.26v-34.5h14.08v6.78h27.1V586.39z M223.69,603.91h-27.1v5.9h27.1V603.91z
		 M248.06,566.68h-10.3v16.1h-14.26v-43.65h14.26v16.02h10.3V566.68z"/>
	<path class="st3" d="M302.8,587.1c-16.98,3.26-35.81,3.61-49.89,3.7l-1.23-11.09c4.14,0,8.8,0,13.73-0.09v-14.96h13.99v14.52
		c7.66-0.44,15.4-1.06,22.53-2.02L302.8,587.1z M283.88,573.02c1.14-6.69,1.5-12.14,1.58-16.81h-29.04v-11.18h43.12v5.54
		c0,5.98,0,14.08-1.85,24.11L283.88,573.02z M277.63,609.36h44.97v11.18h-59.22v-25.26h14.26V609.36z M328.85,563.43v11.53h-8.8
		v25.78h-14.26v-61.6h14.26v24.29H328.85z"/>
	<path class="st3" d="M352.96,591.59c11.79-0.18,21.38-0.79,31.68-2.64l1.41,11.44c-12.5,2.29-24.55,2.73-40.04,2.73h-7.57v-35.2
		h24.82v-11h-24.9v-11.18h39.42V579h-24.82V591.59z M403.47,539.05v82.98h-14.25v-82.98H403.47z"/>
</g>
</svg>
