<?xml version="1.0" encoding="utf-8"?>
<!-- Generator: Adobe Illustrator 24.0.2, SVG Export Plug-In . SVG Version: 6.00 Build 0)  -->
<svg version="1.1" id="레이어_1" xmlns="http://www.w3.org/2000/svg" xmlns:xlink="http://www.w3.org/1999/xlink" x="0px"
	 y="0px" viewBox="0 0 500 500" style="enable-background:new 0 0 500 500;" xml:space="preserve">
<style type="text/css">
	.st0{fill:#BBBBBB;}
</style>
<g>
	<g>
		<path class="st0" d="M30.3,233L30.3,233c71.05,95.36,163.02,173.17,268.83,227.45l0,0c70.02,32.46,100.34,4.54,112.08-9.34
			l25.46-30.09c8.63-10.2,7.36-25.47-2.84-34.1l-59.58-50.41c-5.85-4.95-15.61-13.21-57.67,10.07c-10.14,5.61-22.17,6.5-32.22,0.72
			l0,0c-53.42-30.75-100.85-70.89-140.02-118.47l0,0c-7.37-8.95-8.48-20.96-4.63-31.89c15.99-45.33,6.23-53.58,0.38-58.54
			L80.51,87.99c-10.2-8.63-25.47-7.36-34.1,2.84l-25.46,30.09C9.21,134.8-5.5,175.92,30.3,233z"/>
		<g>
			<path class="st0" d="M220.58,83.74c-6.65,0.78-11.42,6.81-10.64,13.46c0.78,6.64,6.81,11.41,13.46,10.64
				c91.87-10.74,175.35,55.27,186.09,147.14c0.78,6.65,6.81,11.42,13.46,10.64c6.65-0.78,11.42-6.81,10.64-13.46
				C421.29,147,325.74,71.45,220.58,83.74z"/>
			<path class="st0" d="M209.32,26.2c-6.64,0.78-11.42,6.81-10.64,13.45c0.78,6.65,6.81,11.42,13.46,10.64
				c126.35-14.77,241.17,76.02,255.93,202.37c0.78,6.64,6.81,11.42,13.46,10.64c6.64-0.78,11.42-6.81,10.64-13.45
				C475.85,110.21,348.97,9.88,209.32,26.2z"/>
		</g>
	</g>
</g>
</svg>
