<?xml version="1.0" encoding="utf-8"?>
<!-- Generator: Adobe Illustrator 24.0.2, SVG Export Plug-In . SVG Version: 6.00 Build 0)  -->
<svg version="1.1" id="레이어_1" xmlns="http://www.w3.org/2000/svg" xmlns:xlink="http://www.w3.org/1999/xlink" x="0px"
	 y="0px" viewBox="0 0 500 500" style="enable-background:new 0 0 500 500;" xml:space="preserve">
<style type="text/css">
	.st0{fill:none;}
	.st1{fill:#676767;}
	.st2{fill:#FF8500;}
	.st3{fill:#FF9000;}
	.st4{fill:#FFFFFF;}
</style>
<rect class="st0" width="500" height="400"/>
<rect y="400" class="st0" width="500" height="100"/>
<g>
	<path class="st0" d="M171.54,310.4c2.99-21.72,10.28-42.07,21-60.18c-2.03,0.03-4.05,0.06-6.08,0.06
		c-56.11,0-112.65-10.11-147.23-29.78v42.29C39.23,276.62,88.87,307.05,171.54,310.4z"/>
	<path class="st0" d="M186.46,122.62c91.33,0,147.22-27.12,147.22-41.89c0-14.77-55.89-41.89-147.22-41.89S39.23,65.96,39.23,80.73
		C39.23,95.5,95.13,122.62,186.46,122.62z"/>
	<path class="st0" d="M186.46,216.57c11.94,0,23.24-0.48,33.93-1.32c29.13-27.77,68.52-44.88,111.85-44.88
		c0.48,0,0.96,0.03,1.44,0.04l0-43.85c-34.58,19.67-91.12,29.78-147.23,29.78c-56.11,0-112.65-10.11-147.23-29.78v48.12
		C39.23,189.45,95.13,216.57,186.46,216.57z"/>
	<path class="st0" d="M39.23,310.41v53.8c0,14.77,55.9,41.89,147.23,41.89c0.4,0,0.78-0.02,1.18-0.02
		c-9.62-18.85-15.65-39.8-17.21-61.98C120.78,341.96,70.92,330,39.23,310.41z"/>
	<path class="st1" d="M367.38,80.57c-0.21-49.53-91.11-75.44-180.93-75.44C96.54,5.13,5.51,31.1,5.51,80.73v93.94v88.12v101.43
		c0,49.63,91.02,75.6,180.94,75.6c7.88,0,15.77-0.21,23.61-0.61c-8.77-10.03-16.31-21.15-22.42-33.13c-0.4,0-0.78,0.02-1.18,0.02
		c-91.33,0-147.23-27.12-147.23-41.89v-53.8c31.69,19.58,81.56,31.55,131.2,33.69c-0.27-3.8-0.45-7.62-0.45-11.48
		c0-7.54,0.56-14.95,1.56-22.21c-82.67-3.35-132.31-33.78-132.31-47.61V220.5c34.58,19.66,91.12,29.78,147.23,29.78
		c2.03,0,4.05-0.03,6.08-0.06c7.65-12.92,17.04-24.68,27.85-34.98c-10.69,0.84-21.99,1.32-33.93,1.32
		c-91.33,0-147.23-27.12-147.23-41.89v-48.12c34.58,19.66,91.12,29.78,147.23,29.78c56.11,0,112.65-10.11,147.23-29.78l0,43.85
		c0.2,0,0.4,0.01,0.61,0.02c11.34,0.14,22.39,1.45,33.06,3.82c0.02,0,0.03,0.01,0.05,0.01V80.73
		C367.4,80.68,367.38,80.62,367.38,80.57z M186.46,122.62c-91.33,0-147.23-27.12-147.23-41.89c0-14.77,55.9-41.89,147.23-41.89
		s147.22,27.12,147.22,41.89C333.68,95.5,277.79,122.62,186.46,122.62z"/>
	<path class="st2" d="M334.29,170.42c-0.2,0-0.4-0.01-0.61-0.02v4.23C333.69,173.16,333.93,171.77,334.29,170.42z"/>
	<g>
		<path class="st3" d="M367.4,174.24c-0.02,0-0.03-0.01-0.05-0.01c-10.67-2.36-21.72-3.67-33.06-3.82c-0.35,1.35-0.6,2.75-0.61,4.21
			v-4.23c-0.48,0-0.96-0.04-1.44-0.04c-43.33,0-82.72,17.11-111.85,44.88c-10.81,10.3-20.2,22.06-27.85,34.98
			c-10.72,18.11-18.01,38.46-21,60.18c-1,7.27-1.56,14.67-1.56,22.21c0,3.87,0.18,7.69,0.45,11.48
			c1.56,22.18,7.59,43.14,17.21,61.98c6.11,11.97,13.66,23.09,22.42,33.13c29.77,34.07,73.49,55.66,122.18,55.66
			c89.46,0,162.25-72.78,162.25-162.25C494.49,255.22,440.01,190.36,367.4,174.24z M332.24,461.16c-29.26,0-56.18-9.94-77.81-26.46
			c-11.16-8.53-20.98-18.74-28.84-30.4c-11.81-17.52-19.36-38.11-21.32-60.28c-0.33-3.76-0.58-7.55-0.58-11.39
			c0-7.66,0.8-15.13,2.09-22.43c4.21-23.76,14.94-45.23,30.3-62.58c23.57-26.63,57.89-43.53,96.16-43.53c0.49,0,0.96,0.07,1.44,0.07
			c6.66,0.07,13.16,0.74,19.54,1.79c4.82,0.8,9.55,1.82,14.18,3.14c53.82,15.35,93.38,64.86,93.38,123.53
			C460.77,403.49,403.11,461.16,332.24,461.16z"/>
		<polygon class="st3" points="338.84,292.23 333.68,292.23 314,292.23 306.21,323.85 296.09,364.93 285.8,330.78 276.08,298.56 
			274.17,292.23 248.23,292.23 252.19,304.45 262.61,336.6 281.4,394.59 282.21,397.08 309.24,397.08 312.77,383.14 326.79,327.66 
			333.68,355.53 343.96,397.08 351.64,397.08 370.99,397.08 405.33,292.23 379.03,292.23 367.4,330.8 357.11,364.93 341.99,304.77 
					"/>
	</g>
</g>
<g>
	<path class="st4" d="M167.29,543.84v11.18H92.58v-11.18h50.6c1.41-6.78,1.67-12.23,1.76-17.25h-43.38v-11.17h57.46v6.86
		c0,6.51,0,12.85-1.76,21.56H167.29z M144.5,559.24h14.17v34.85h-57.73v-34.85h14.08v7.39h29.48V559.24z M144.5,577.36h-29.48v5.54
		h29.48V577.36z"/>
	<path class="st4" d="M243.58,512.25v82.89h-14.26v-30.1h-14.7c-3.78,7.92-10.38,12.41-18.22,12.5c-12.5,0-21.74-11.44-21.74-29.92
		s9.24-29.92,21.74-29.92c7.22,0,13.38,3.78,17.25,10.65h15.66v-16.19L243.58,512.25z M204.69,547.62c0-11.62-3.26-16.98-8.27-16.98
		c-5.02,0-8.27,5.37-8.27,16.98c0,11.62,3.26,16.98,8.27,16.98C201.43,564.61,204.69,559.24,204.69,547.62z M229.33,553.69V539.7
		h-11.79c0.44,2.38,0.62,5.1,0.62,7.83c0,2.2-0.09,4.14-0.35,6.16H229.33z"/>
	<path class="st4" d="M304.04,560.29c-16.98,3.26-35.81,3.61-49.89,3.7l-1.23-11.09c4.14,0,8.8,0,13.73-0.09v-14.96h13.99v14.52
		c7.66-0.44,15.4-1.06,22.53-2.02L304.04,560.29z M285.12,546.21c1.14-6.69,1.5-12.14,1.58-16.81h-29.04v-11.18h43.12v5.54
		c0,5.98,0,14.08-1.85,24.11L285.12,546.21z M278.87,582.56h44.97v11.18h-59.22v-25.26h14.26V582.56z M330.09,536.62v11.53h-8.8
		v25.78h-14.26v-61.6h14.26v24.29H330.09z"/>
	<path class="st4" d="M354.2,564.78c11.79-0.18,21.38-0.79,31.68-2.64l1.41,11.44c-12.5,2.29-24.55,2.73-40.04,2.73h-7.57v-35.2
		h24.82v-11h-24.9v-11.18h39.42v33.26H354.2V564.78z M404.71,512.25v82.98h-14.25v-82.98H404.71z"/>
</g>
</svg>
