<?xml version="1.0" encoding="utf-8"?>
<!-- Generator: Adobe Illustrator 24.0.2, SVG Export Plug-In . SVG Version: 6.00 Build 0)  -->
<svg version="1.1" id="레이어_1" xmlns="http://www.w3.org/2000/svg" xmlns:xlink="http://www.w3.org/1999/xlink" x="0px"
	 y="0px" viewBox="0 0 500 500" style="enable-background:new 0 0 500 500;" xml:space="preserve">
<style type="text/css">
	.st0{fill:#676767;}
	.st1{fill:#00AB9A;}
</style>
<g>
	<g>
		<path class="st0" d="M389.68,493.27H112.64c-18.31,0-33.36-14.25-34.64-32.24L10.91,166.7c-0.31-1.36-0.47-2.76-0.47-4.15
			c0-19.15,15.58-34.73,34.73-34.73h409.67c19.15,0,34.73,15.58,34.73,34.73c0,1.35-0.15,2.7-0.44,4.02l-64.8,294.38
			C423.08,478.98,408.02,493.27,389.68,493.27z M115.1,455.89h272.12c0.07-0.46,0.15-0.92,0.25-1.37l63.69-289.33H48.89l65.93,289.2
			C114.93,454.88,115.03,455.39,115.1,455.89z"/>
	</g>
	<g>
		<path class="st0" d="M356.87,214.39h-35.04c0-64.47-9.98-172.62-76.84-172.62c-56.42,0-68.26,93.87-68.26,172.62H141.7
			c0-50.47,4.43-90.51,13.54-122.4C175.37,21.52,215.16,6.73,245,6.73c30.06,0,70.71,13.39,93.68,77.17
			C350.75,117.41,356.87,161.32,356.87,214.39z"/>
	</g>
	<g>
		<g>
			<circle class="st1" cx="165.65" cy="254.6" r="48.41"/>
		</g>
	</g>
	<g>
		<g>
			<circle class="st1" cx="339.35" cy="254.6" r="48.41"/>
		</g>
	</g>
</g>
</svg>
