<?xml version="1.0" encoding="utf-8"?>
<!-- Generator: Adobe Illustrator 24.0.2, SVG Export Plug-In . SVG Version: 6.00 Build 0)  -->
<svg version="1.1" id="레이어_1" xmlns="http://www.w3.org/2000/svg" xmlns:xlink="http://www.w3.org/1999/xlink" x="0px"
	 y="0px" viewBox="0 0 500 500" style="enable-background:new 0 0 500 500;" xml:space="preserve">
<style type="text/css">
	.st0{fill:none;}
	.st1{fill:#676767;}
	.st2{fill:#00AB9A;}
	.st3{fill:#FFFFFF;}
</style>
<rect y="400" class="st0" width="500" height="100"/>
<rect class="st0" width="500" height="400"/>
<g>
	<path class="st1" d="M44.12,492.21c-9.69,0-18.17-3.63-25.43-10.9s-10.9-15.74-10.9-25.43V141.01c0-9.69,3.63-18.17,10.9-25.43
		c7.27-7.27,15.74-10.9,25.43-10.9H195.5V44.12c0-9.69,3.63-18.17,10.9-25.43c7.27-7.27,15.83-10.9,25.68-10.9h35.83
		c9.85,0,18.41,3.63,25.68,10.9c7.27,7.27,10.9,15.74,10.9,25.43v60.55h151.38c9.69,0,18.17,3.63,25.43,10.9
		c7.27,7.27,10.9,15.74,10.9,25.43v314.87c0,9.69-3.63,18.17-10.9,25.43s-15.74,10.9-25.43,10.9H44.12z M44.12,455.88h411.76V141.01
		H304.5v18.17c0,11.3-3.63,20.18-10.9,26.64c-7.27,6.46-15.83,9.69-25.68,9.69h-35.83c-9.85,0-18.41-3.23-25.68-9.69
		c-7.27-6.46-10.9-15.34-10.9-26.64v-18.17H44.12V455.88z M231.83,159.17h36.33V44.12h-36.33V159.17z"/>
	<path class="st2" d="M99.83,391.09h161.02v-9.43c0-8.08-2.02-15.27-6.06-21.56c-4.04-6.29-9.21-10.55-15.5-12.8
		c-14.37-4.94-25.6-8.2-33.69-9.77c-8.08-1.57-15.94-2.36-23.58-2.36c-8.53,0-17.63,1.01-27.29,3.03
		c-9.66,2.02-20.55,5.05-32.68,9.1c-6.74,2.25-12.13,6.51-16.17,12.8c-4.04,6.29-6.06,13.47-6.06,21.56V391.09z"/>
	<rect x="303.29" y="344.46" class="st2" width="102.94" height="30.28"/>
	<path class="st2" d="M179.89,332.62c10.8,0,19.98-3.78,27.54-11.34c7.56-7.56,11.34-16.74,11.34-27.54
		c0-10.8-3.78-19.98-11.34-27.54s-16.74-11.34-27.54-11.34s-19.98,3.78-27.54,11.34s-11.34,16.74-11.34,27.54
		c0,10.8,3.78,19.98,11.34,27.54C159.91,328.84,169.09,332.62,179.89,332.62z"/>
	<rect x="303.29" y="263.93" class="st2" width="102.94" height="30.28"/>
</g>
<g>
	<path class="st3" d="M138.86,565.81c-8.89-2.64-14.78-8.01-18.48-14.78c-3.61,7.39-9.77,13.29-19.27,16.19l-7.3-11.09
		c13.29-4.05,18.3-13.38,19.1-22.26H97.67v-11.09h44.79v11.09h-14.87c0.88,8.36,5.72,16.98,18.48,21.03L138.86,565.81z
		 M106.21,571.44h56.93v29.65h-14.26v-18.57h-42.68V571.44z M163.14,518.38v49.81h-14.26v-49.81H163.14z"/>
	<path class="st3" d="M247.27,588.6v11.18h-62.92v-24.82h11.09v-10.21c-6.69,0.35-13.2,0.44-19.01,0.44l-1.67-11.09
		c14.96-0.09,34.94-0.26,52.01-2.55l0.97,10.03c-5.9,1.06-12.14,1.76-18.13,2.29v15.22h-11.09v9.5H247.27z M180.39,535.8
		c0-8.71,8.62-14.87,20.68-14.87c12.14,0,20.77,6.16,20.77,14.87c0,8.89-8.62,14.96-20.77,14.96
		C189.02,550.76,180.39,544.69,180.39,535.8z M193.86,535.8c0,3.26,2.99,4.66,7.22,4.66c4.4,0,7.3-1.41,7.3-4.66
		c0-3.17-2.9-4.58-7.3-4.58C196.85,531.23,193.86,532.63,193.86,535.8z M231.26,565.9v-47.52h14.26v62.48h-14.26v-5.37h-14.78v-9.59
		H231.26z"/>
	<path class="st3" d="M305.53,566.34c-16.98,3.26-35.81,3.61-49.89,3.7l-1.23-11.09c4.14,0,8.8,0,13.73-0.09V543.9h13.99v14.52
		c7.66-0.44,15.4-1.06,22.53-2.02L305.53,566.34z M286.61,552.26c1.14-6.69,1.5-12.14,1.58-16.81h-29.04v-11.18h43.12v5.54
		c0,5.98,0,14.08-1.85,24.11L286.61,552.26z M280.36,588.6h44.97v11.18H266.1v-25.26h14.26V588.6z M331.58,542.67v11.53h-8.8v25.78
		h-14.26v-61.6h14.26v24.29H331.58z"/>
	<path class="st3" d="M355.69,570.83c11.79-0.18,21.38-0.79,31.68-2.64l1.41,11.44c-12.5,2.29-24.55,2.73-40.04,2.73h-7.57v-35.2
		h24.82v-11h-24.9v-11.18h39.42v33.26h-24.82V570.83z M406.2,518.29v82.98h-14.25v-82.98H406.2z"/>
</g>
</svg>
