<?xml version="1.0" encoding="utf-8"?>
<!-- Generator: Adobe Illustrator 24.0.2, SVG Export Plug-In . SVG Version: 6.00 Build 0)  -->
<svg version="1.1" id="레이어_1" xmlns="http://www.w3.org/2000/svg" xmlns:xlink="http://www.w3.org/1999/xlink" x="0px"
	 y="0px" viewBox="0 0 500 500" style="enable-background:new 0 0 500 500;" xml:space="preserve">
<style type="text/css">
	.st0{fill:none;}
	.st1{fill:#676767;}
	.st2{fill:#FF9000;}
</style>
<rect y="400" class="st0" width="500" height="100"/>
<rect class="st0" width="500" height="400"/>
<g>
	<path class="st1" d="M183.99,39.5c43.32,0,78.56,35.04,78.56,78.12s-35.24,78.12-78.56,78.12s-78.56-35.04-78.56-78.12
		S140.67,39.5,183.99,39.5 M183.99,6.69c-61.51,0-111.37,49.66-111.37,110.92s49.86,110.92,111.37,110.92
		s111.37-49.66,111.37-110.92S245.49,6.69,183.99,6.69L183.99,6.69z"/>
	<path class="st1" d="M42.56,459.52V367.2c0-36.52,29.92-66.24,66.69-66.24h43.9v-35.62h-43.9h0c-10.62,0-20.86,1.6-30.5,4.58
		c-9.63,2.98-18.66,7.32-26.84,12.82c-27.28,18.3-45.22,49.3-45.22,84.46v126.11h35.86v-0.05h198.32v-33.73H42.56z"/>
	<g>
		<path class="st2" d="M463.2,385.07c3.28-8.63,4.92-17.8,4.92-27.49c0-9.7-1.37-19.12-4.1-28.27l28.46-26.64l-16.24-27.5
			l-37.4,11.32c-5.99-6.46-13.18-11.85-21.59-16.17c-8.41-4.29-16.95-7.52-25.61-9.69l-8.12-39.56h-33.35l-8.16,39.56
			c-8.67,1.63-17.21,4.73-25.61,9.31c-8.41,4.58-15.59,10.37-21.55,17.37l-37.41-12.95l-16.28,29.09l29.28,27.5
			c-3.25,8.07-5.01,16.95-5.27,26.64c-0.29,9.69,1.47,18.86,5.27,27.49l-30.1,27.46l17.1,28.27l38.23-12.91
			c6.51,5.92,13.69,11.17,21.55,15.75c7.86,4.58,16.13,7.95,24.79,10.12l7.34,39.56h33.34l8.94-39.56
			c8.67-1.63,16.94-4.86,24.83-9.7c7.86-4.86,15.05-10.25,21.55-16.17l38.22,12.1l17.06-28.27L463.2,385.07z M366.13,419.32
			c-34.74,0-62.9-27.97-62.9-62.47c0-34.5,28.16-62.47,62.9-62.47c34.74,0,62.9,27.97,62.9,62.47
			C429.03,391.36,400.86,419.32,366.13,419.32z"/>
	</g>
</g>
<g>
	<path d="M115.93,582.68H85.31v27.28H71.05v-27.28H41.13v-11.35h74.71L115.93,582.68z M108.28,566.84
		c-14.87-2.11-24.46-8.45-29.74-16.72c-5.28,8.27-14.87,14.61-29.74,16.72l-5.46-11.35c21.12-2.82,27.63-13.99,27.63-22.53v-3.52
		H86.1v3.52c0,8.54,6.51,19.71,27.63,22.53L108.28,566.84z"/>
	<path d="M164.6,532.34c0,22.7-13.29,38.1-37.84,44.79l-5.72-11.35c16.98-4.4,26.05-12.58,27.98-22.26h-23.94v-11.18H164.6z
		 M188.44,592.71c0,10.56-11.44,17.34-28.16,17.34c-16.81,0-28.25-6.78-28.25-17.34c0-10.65,11.44-17.42,28.25-17.42
		C177,575.29,188.44,582.06,188.44,592.71z M174.36,592.71c0-4.49-5.1-6.51-14.08-6.51c-9.06,0-14.17,2.02-14.17,6.51
		c0,4.4,5.1,6.42,14.17,6.42C169.26,599.13,174.36,597.11,174.36,592.71z M197.86,545.46v11.53h-10.3v17.16h-14.26v-46.9h14.26
		v18.21H197.86z"/>
	<path d="M237.2,573.44c-6.34-2.55-10.65-6.78-13.55-12.14c-2.99,6.6-7.83,11.88-15.05,14.96l-7.39-11
		c11.79-5.19,15.22-15.05,15.22-24.46v-8.71h13.82v8.71c0,8.27,3.08,16.46,12.76,21.12v-33.09h13.2v17.42h4.14v-19.01h13.46v50.25
		h-13.46v-19.98h-4.14v17.42H243v-9.68L237.2,573.44z M274.15,594.21c0,9.77-11.44,15.84-28.95,15.84
		c-17.42,0-28.86-6.07-28.86-15.84c0-9.86,11.44-15.93,28.86-15.93C262.72,578.28,274.15,584.35,274.15,594.21z M259.9,594.21
		c0-3.7-5.02-5.28-14.69-5.28c-9.59,0-14.61,1.58-14.61,5.28c0,3.61,5.02,5.19,14.61,5.19C254.88,599.4,259.9,597.81,259.9,594.21z"
		/>
	<path d="M358.19,575.2c-16.98,3.26-35.81,3.61-49.89,3.7l-1.23-11.09c4.14,0,8.8,0,13.73-0.09v-14.96h13.99v14.52
		c7.66-0.44,15.4-1.06,22.53-2.02L358.19,575.2z M339.28,561.12c1.14-6.69,1.5-12.14,1.58-16.81h-29.04v-11.18h43.12v5.54
		c0,5.98,0,14.08-1.85,24.11L339.28,561.12z M333.03,597.46h44.97v11.18h-59.22v-25.26h14.26V597.46z M384.24,551.53v11.53h-8.8
		v25.78h-14.26v-61.6h14.26v24.29H384.24z"/>
	<path d="M408.36,579.69c11.79-0.18,21.38-0.79,31.68-2.64l1.41,11.44c-12.5,2.29-24.55,2.73-40.04,2.73h-7.57v-35.2h24.82v-11
		h-24.9v-11.18h39.42v33.26h-24.82V579.69z M458.87,527.15v82.98h-14.26v-82.98H458.87z"/>
</g>
<text transform="matrix(1 0 0 1 -437.475 487.5815)" style="fill:#FFFFFF; font-family:'NotoSansKR-Black-KSCpc-EUC-H'; font-size:90px;">수강생관리</text>
</svg>
