<?xml version="1.0" encoding="utf-8"?>
<!-- Generator: Adobe Illustrator 24.0.2, SVG Export Plug-In . SVG Version: 6.00 Build 0)  -->
<svg version="1.1" id="레이어_1" xmlns="http://www.w3.org/2000/svg" xmlns:xlink="http://www.w3.org/1999/xlink" x="0px"
	 y="0px" viewBox="0 0 24 24" style="enable-background:new 0 0 24 24;" xml:space="preserve">
<style type="text/css">
	.st0{fill:#AAAAAA;}
</style>
<g>
	<path class="st0" d="M17.6,20.8L13,17.5c-0.3-0.2-0.6-0.3-1-0.3s-0.7,0.1-1,0.3l-3.9,2.9c-0.2,0.1-0.5,0-0.4-0.3l1.4-4.4
		c0.3-0.8,0-1.7-0.7-2.2l-3.8-2.8c-0.2-0.1-0.1-0.5,0.2-0.5h4.7c0.9,0,1.6-0.6,1.9-1.4l1.4-4.4c0.1-0.2,0.4-0.2,0.5,0l1.4,4.4
		c0.3,0.8,1,1.4,1.9,1.4H21l-1.7,1.3c-0.1,0.1-0.1,0.3,0,0.4l1.3,0.9c0.1,0.1,0.2,0.1,0.3,0l2.1-1.5c0.6-0.4,0.8-1.2,0.6-1.9
		c-0.2-0.7-0.9-1.2-1.6-1.2h-6.2c-0.1,0-0.2-0.1-0.3-0.2l-1.9-5.9C13.4,1.5,12.7,1,12,1s-1.4,0.5-1.6,1.2L8.5,8.1
		c0,0.1-0.1,0.2-0.2,0.2H2c-0.7,0-1.4,0.5-1.6,1.2c-0.2,0.7,0,1.5,0.6,1.9l5,3.6c0.1,0.1,0.1,0.2,0.1,0.3l-1.9,5.9
		c-0.2,0.7,0,1.5,0.6,1.9c0.3,0.2,0.7,0.3,1,0.3s0.7-0.1,1-0.3l5-3.6c0.1-0.1,0.2-0.1,0.3,0l5,3.6c0.6,0.4,1.4,0.4,2,0
		c0.3-0.2,0.5-0.5,0.6-0.8l-2.2-1.6L17.6,20.8z"/>
</g>
<g>
	<g>
		<path class="st0" d="M19.8,21c-0.6,0-1.1-0.5-1.1-1.1v-5.4c0-0.6,0.5-1.1,1.1-1.1s1.1,0.5,1.1,1.1v5.4C20.8,20.5,20.3,21,19.8,21z
			"/>
	</g>
	<g>
		<path class="st0" d="M22.4,18.3h-5.4c-0.6,0-1.1-0.5-1.1-1.1s0.5-1.1,1.1-1.1h5.4c0.6,0,1.1,0.5,1.1,1.1S23,18.3,22.4,18.3z"/>
	</g>
</g>
</svg>
