<?xml version="1.0" encoding="utf-8"?>
<!-- Generator: Adobe Illustrator 24.0.2, SVG Export Plug-In . SVG Version: 6.00 Build 0)  -->
<svg version="1.1" id="레이어_1" xmlns="http://www.w3.org/2000/svg" xmlns:xlink="http://www.w3.org/1999/xlink" x="0px"
	 y="0px" viewBox="0 0 24 24" style="enable-background:new 0 0 24 24;" xml:space="preserve">
<style type="text/css">
	.st0{fill:#FFFFFF;}
</style>
<g>
	<g>
		<g>
			<path class="st0" d="M19.01,13.03h-7.22c-0.57,0-1.03-0.46-1.03-1.03s0.46-1.03,1.03-1.03h7.22c0.57,0,1.03,0.46,1.03,1.03
				S19.58,13.03,19.01,13.03z"/>
		</g>
		<g>
			<path class="st0" d="M16.95,16.13c-0.26,0-0.53-0.1-0.73-0.3c-0.4-0.4-0.4-1.06,0-1.46L18.58,12l-2.37-2.37
				c-0.4-0.4-0.4-1.06,0-1.46c0.4-0.4,1.06-0.4,1.46,0L21.5,12l-3.82,3.82C17.47,16.03,17.21,16.13,16.95,16.13z"/>
		</g>
	</g>
	<g>
		<path class="st0" d="M15.91,21.14c0,0.36-0.23,0.66-0.5,0.66H5.06c-0.27,0-0.5-0.3-0.5-0.66V2.86c0-0.36,0.23-0.66,0.5-0.66h10.35
			c0.27,0,0.5,0.3,0.5,0.66v3.67c0,0.17,0.14,0.31,0.31,0.31h1.44c0.17,0,0.31-0.14,0.31-0.31V2.86c0-1.5-1.15-2.72-2.56-2.72H5.06
			c-1.41,0-2.56,1.22-2.56,2.72v18.28c0,1.5,1.15,2.72,2.56,2.72h10.35c1.41,0,2.56-1.22,2.56-2.72v-3.67
			c0-0.17-0.14-0.31-0.31-0.31h-1.44c-0.17,0-0.31,0.14-0.31,0.31V21.14z"/>
	</g>
</g>
</svg>
