<?xml version="1.0" encoding="utf-8"?>
<!-- Generator: Adobe Illustrator 24.0.2, SVG Export Plug-In . SVG Version: 6.00 Build 0)  -->
<svg version="1.1" id="레이어_1" xmlns="http://www.w3.org/2000/svg" xmlns:xlink="http://www.w3.org/1999/xlink" x="0px"
	 y="0px" viewBox="0 0 24 24" style="enable-background:new 0 0 24 24;" xml:space="preserve">
<style type="text/css">
	.st0{fill:#FFFFFF;}
</style>
<g>
	<g>
		<path class="st0" d="M20.71,17.83H3.29c-1.63,0-2.96-1.33-2.96-2.96V4.46c0-1.63,1.33-2.96,2.96-2.96h17.42
			c1.63,0,2.96,1.33,2.96,2.96v10.42C23.67,16.51,22.34,17.83,20.71,17.83z M3.29,3.83c-0.34,0-0.62,0.29-0.62,0.62v10.42
			c0,0.34,0.29,0.62,0.62,0.62h17.42c0.34,0,0.62-0.28,0.62-0.62V4.46c0-0.34-0.28-0.62-0.62-0.62H3.29z"/>
	</g>
	<g>
		<rect x="10.83" y="16.67" class="st0" width="2.33" height="4.67"/>
	</g>
	<g>
		<path class="st0" d="M17.25,22.5H6.75c-0.64,0-1.17-0.52-1.17-1.17c0-0.64,0.52-1.17,1.17-1.17h10.5c0.64,0,1.17,0.52,1.17,1.17
			C18.42,21.98,17.89,22.5,17.25,22.5z"/>
	</g>
</g>
</svg>
