<?xml version="1.0" encoding="utf-8"?>
<!-- Generator: Adobe Illustrator 24.0.2, SVG Export Plug-In . SVG Version: 6.00 Build 0)  -->
<svg version="1.1" id="레이어_1" xmlns="http://www.w3.org/2000/svg" xmlns:xlink="http://www.w3.org/1999/xlink" x="0px"
	 y="0px" viewBox="0 0 24 24" style="enable-background:new 0 0 24 24;" xml:space="preserve">
<style type="text/css">
	.st0{fill:#FFFFFF;}
</style>
<circle class="st0" cx="12" cy="12" r="4"/>
<g>
	<path class="st0" d="M16.44,19.56c0-0.08,0.01-0.15,0.02-0.23c-0.15-0.05-0.29-0.13-0.41-0.24c-0.51,0.29-1.04,0.53-1.61,0.71
		c0,0.16-0.04,0.32-0.1,0.46C14.74,20.54,15,20.99,15,21.5c0,0.01,0,0.03,0,0.04c0.69-0.22,1.34-0.51,1.95-0.86
		c-0.02-0.02-0.05-0.04-0.07-0.06C16.6,20.34,16.44,19.96,16.44,19.56z"/>
	<path class="st0" d="M4.26,16.01c0.06-0.16,0.15-0.31,0.27-0.43c0.03-0.03,0.06-0.04,0.09-0.06c-0.17-0.35-0.32-0.7-0.43-1.08
		c-0.16,0-0.32-0.04-0.46-0.1C3.46,14.74,3.01,15,2.5,15c-0.01,0-0.03,0-0.04,0c0.14,0.45,0.33,0.89,0.53,1.31
		C3.35,16.01,3.82,15.92,4.26,16.01z"/>
	<path class="st0" d="M9.65,20.26c-0.06-0.14-0.09-0.3-0.1-0.46c-0.57-0.18-1.1-0.42-1.61-0.71c-0.12,0.11-0.26,0.19-0.41,0.24
		c0.01,0.07,0.02,0.15,0.02,0.23c0,0.4-0.16,0.78-0.44,1.06c-0.02,0.02-0.05,0.04-0.07,0.06c0.61,0.35,1.27,0.65,1.95,0.86
		c0-0.01,0-0.03,0-0.04C9,20.99,9.26,20.54,9.65,20.26z"/>
	<path class="st0" d="M3.74,9.65c0.14-0.06,0.3-0.09,0.46-0.1c0.12-0.37,0.27-0.73,0.43-1.08C4.6,8.45,4.56,8.44,4.54,8.42
		c-0.12-0.11-0.2-0.25-0.27-0.4C4.16,8.04,4.05,8.06,3.94,8.06c-0.36,0-0.69-0.13-0.96-0.35C2.78,8.13,2.6,8.56,2.46,9
		C2.47,9,2.49,9,2.5,9C3.01,9,3.46,9.26,3.74,9.65z"/>
	<path class="st0" d="M7.56,4.44c0,0.08-0.01,0.16-0.02,0.23C7.69,4.72,7.82,4.8,7.94,4.9c0.51-0.29,1.04-0.53,1.61-0.71
		c0-0.16,0.04-0.32,0.1-0.46C9.26,3.46,9,3.01,9,2.5c0-0.01,0-0.03,0-0.04C8.31,2.68,7.66,2.97,7.04,3.33
		C7.07,3.35,7.1,3.36,7.12,3.38C7.4,3.66,7.56,4.04,7.56,4.44z"/>
	<path class="st0" d="M20.26,14.35c-0.14,0.06-0.3,0.09-0.46,0.1c-0.12,0.37-0.27,0.73-0.43,1.08c0.03,0.02,0.06,0.03,0.09,0.06
		c0.12,0.12,0.21,0.27,0.27,0.43c0.45-0.09,0.92,0,1.28,0.29c0.2-0.42,0.39-0.86,0.53-1.31c-0.01,0-0.03,0-0.04,0
		C20.99,15,20.54,14.74,20.26,14.35z"/>
	<path class="st0" d="M19.73,8.02c-0.06,0.15-0.15,0.28-0.27,0.4c-0.03,0.03-0.06,0.04-0.09,0.06c0.17,0.35,0.32,0.7,0.43,1.08
		c0.16,0,0.32,0.04,0.46,0.1C20.54,9.26,20.99,9,21.5,9c0.01,0,0.03,0,0.04,0c-0.14-0.45-0.32-0.88-0.52-1.3
		c-0.27,0.22-0.6,0.35-0.96,0.35C19.95,8.06,19.84,8.04,19.73,8.02z"/>
	<path class="st0" d="M14.35,3.74c0.06,0.14,0.09,0.3,0.1,0.46c0.57,0.18,1.1,0.42,1.61,0.71c0.12-0.11,0.26-0.18,0.41-0.23
		c-0.01-0.08-0.02-0.15-0.02-0.23c0-0.4,0.16-0.78,0.44-1.06c0.02-0.02,0.05-0.03,0.08-0.05C16.34,2.97,15.69,2.68,15,2.46
		c0,0.01,0,0.03,0,0.04C15,3.01,14.74,3.46,14.35,3.74z"/>
	<path class="st0" d="M9,21.54C9.03,22.35,9.69,23,10.5,23h3c0.81,0,1.47-0.65,1.5-1.46c-0.95,0.3-1.95,0.46-3,0.46
		S9.95,21.84,9,21.54z"/>
	<path class="st0" d="M14.35,20.26C14.16,20.7,13.73,21,13.23,21h-2.45c-0.5,0-0.93-0.3-1.12-0.74C9.26,20.54,9,20.99,9,21.5
		c0,0.01,0,0.03,0,0.04c0.95,0.3,1.95,0.46,3,0.46s2.05-0.16,3-0.46c0-0.01,0-0.03,0-0.04C15,20.99,14.74,20.54,14.35,20.26z"/>
	<path class="st0" d="M15,2.46C14.97,1.65,14.31,1,13.5,1h-3C9.69,1,9.03,1.65,9,2.46C9.95,2.16,10.96,2,12,2S14.05,2.16,15,2.46z"
		/>
	<path class="st0" d="M9.65,3.74C9.84,3.3,10.27,3,10.77,3h2.45c0.5,0,0.93,0.3,1.12,0.74C14.74,3.46,15,3.01,15,2.5
		c0-0.01,0-0.03,0-0.04C14.05,2.16,13.04,2,12,2S9.95,2.16,9,2.46C9,2.47,9,2.49,9,2.5C9,3.01,9.26,3.46,9.65,3.74z"/>
	<path class="st0" d="M7.04,3.33C6.47,2.83,5.54,2.84,5,3.38L2.88,5.5C2.6,5.78,2.44,6.16,2.44,6.56S2.6,7.34,2.88,7.62
		c0.03,0.03,0.07,0.06,0.1,0.09C3.86,5.87,5.28,4.34,7.04,3.33z"/>
	<path class="st0" d="M4.27,8.02C4.21,7.87,4.18,7.71,4.18,7.55c0-0.33,0.13-0.64,0.36-0.87l1.73-1.73C6.6,4.62,7.11,4.53,7.54,4.67
		C7.55,4.6,7.56,4.52,7.56,4.44c0-0.4-0.16-0.78-0.44-1.06C7.1,3.36,7.07,3.35,7.04,3.33C5.28,4.34,3.86,5.87,2.98,7.71
		c0.27,0.23,0.6,0.35,0.96,0.35C4.05,8.06,4.16,8.04,4.27,8.02z"/>
	<path class="st0" d="M21.02,7.71c0.03-0.03,0.07-0.05,0.1-0.09c0.28-0.28,0.44-0.66,0.44-1.06S21.4,5.78,21.12,5.5L19,3.38
		c-0.54-0.54-1.47-0.55-2.04-0.05C18.72,4.34,20.14,5.87,21.02,7.71z"/>
	<path class="st0" d="M16.44,4.44c0,0.08,0.01,0.16,0.02,0.23c0.43-0.14,0.93-0.06,1.26,0.27l1.73,1.73
		c0.23,0.23,0.36,0.54,0.36,0.87c0,0.16-0.03,0.32-0.09,0.47c0.11,0.02,0.22,0.04,0.33,0.04c0.36,0,0.69-0.13,0.96-0.35
		c-0.88-1.84-2.3-3.37-4.06-4.38c-0.02,0.02-0.06,0.03-0.08,0.05C16.6,3.66,16.44,4.04,16.44,4.44z"/>
	<path class="st0" d="M2.99,16.31c-0.03,0.03-0.08,0.04-0.11,0.07c-0.28,0.28-0.44,0.66-0.44,1.06s0.16,0.78,0.44,1.06L5,20.62
		c0.28,0.28,0.66,0.44,1.06,0.44c0.37,0,0.72-0.14,0.99-0.38C5.29,19.67,3.87,18.14,2.99,16.31z"/>
	<path class="st0" d="M7.56,19.56c0-0.08-0.01-0.15-0.02-0.23c-0.13,0.04-0.26,0.08-0.4,0.08c-0.33,0-0.64-0.13-0.87-0.36
		l-1.74-1.74c-0.23-0.23-0.36-0.54-0.36-0.87c0-0.15,0.03-0.3,0.09-0.44c-0.45-0.09-0.92,0-1.28,0.29c0.88,1.84,2.3,3.36,4.06,4.37
		c0.02-0.02,0.05-0.04,0.07-0.06C7.4,20.34,7.56,19.96,7.56,19.56z"/>
	<path class="st0" d="M16.95,20.68c0.27,0.24,0.62,0.38,0.99,0.38c0.4,0,0.78-0.16,1.06-0.44l2.12-2.12
		c0.28-0.28,0.44-0.66,0.44-1.06s-0.16-0.78-0.44-1.06c-0.03-0.03-0.08-0.04-0.11-0.07C20.13,18.14,18.71,19.67,16.95,20.68z"/>
	<path class="st0" d="M19.74,16.01c0.05,0.14,0.09,0.28,0.09,0.44c0,0.33-0.13,0.64-0.36,0.87l-1.74,1.74
		c-0.23,0.23-0.54,0.36-0.87,0.36c-0.14,0-0.27-0.03-0.4-0.08c-0.01,0.07-0.02,0.15-0.02,0.23c0,0.4,0.16,0.78,0.44,1.06
		c0.02,0.02,0.05,0.04,0.07,0.06c1.76-1.01,3.18-2.53,4.06-4.37C20.65,16.01,20.18,15.92,19.74,16.01z"/>
	<path class="st0" d="M21.54,9c0.3,0.95,0.46,1.95,0.46,3s-0.16,2.05-0.46,3c0.81-0.02,1.46-0.68,1.46-1.5v-3
		C23,9.69,22.35,9.03,21.54,9z"/>
	<path class="st0" d="M21.54,9c-0.01,0-0.03,0-0.04,0c-0.51,0-0.96,0.26-1.24,0.65C20.7,9.84,21,10.27,21,10.77v2.45
		c0,0.5-0.3,0.93-0.74,1.12C20.54,14.74,20.99,15,21.5,15c0.01,0,0.03,0,0.04,0c0.3-0.95,0.46-1.95,0.46-3S21.84,9.95,21.54,9z"/>
	<path class="st0" d="M2.46,9C1.65,9.03,1,9.69,1,10.5v3c0,0.81,0.65,1.47,1.46,1.5C2.16,14.05,2,13.04,2,12S2.16,9.95,2.46,9z"/>
	<path class="st0" d="M3.74,14.35C3.3,14.16,3,13.73,3,13.23v-2.45c0-0.5,0.3-0.93,0.74-1.12C3.46,9.26,3.01,9,2.5,9
		C2.49,9,2.47,9,2.46,9C2.16,9.95,2,10.96,2,12s0.16,2.05,0.46,3c0.01,0,0.03,0,0.04,0C3.01,15,3.46,14.74,3.74,14.35z"/>
</g>
</svg>
