<?xml version="1.0" encoding="utf-8"?>
<!-- Generator: Adobe Illustrator 24.0.2, SVG Export Plug-In . SVG Version: 6.00 Build 0)  -->
<svg version="1.1" id="레이어_1" xmlns="http://www.w3.org/2000/svg" xmlns:xlink="http://www.w3.org/1999/xlink" x="0px"
	 y="0px" viewBox="0 0 24 24" style="enable-background:new 0 0 24 24;" xml:space="preserve">
<style type="text/css">
	.st0{fill:#FFFFFF;}
</style>
<g>
	<path class="st0" d="M17.58,20.84L13,17.51c-0.3-0.22-0.65-0.33-1-0.33c-0.35,0-0.7,0.11-1,0.33l-3.94,2.86
		c-0.2,0.15-0.47-0.05-0.4-0.29l1.45-4.45c0.26-0.81-0.03-1.69-0.71-2.18L3.62,10.7c-0.2-0.15-0.1-0.47,0.15-0.47h4.68
		c0.85,0,1.6-0.55,1.86-1.35l1.44-4.45c0.08-0.24,0.41-0.24,0.49,0l1.45,4.45c0.26,0.81,1.01,1.35,1.86,1.35h5.47l-1.73,1.26
		c-0.14,0.1-0.14,0.32,0,0.42l1.28,0.9c0.09,0.06,0.21,0.06,0.3,0l2.08-1.51c0.6-0.43,0.84-1.2,0.62-1.9
		c-0.23-0.7-0.88-1.17-1.61-1.17h-6.18c-0.11,0-0.21-0.07-0.25-0.18l-1.91-5.88C13.39,1.47,12.74,1,12,1s-1.39,0.47-1.61,1.17
		L8.47,8.05C8.44,8.16,8.34,8.23,8.23,8.23H2.05c-0.74,0-1.39,0.47-1.61,1.17c-0.23,0.7,0.02,1.46,0.62,1.9l5,3.63
		c0.09,0.07,0.13,0.18,0.09,0.29l-1.91,5.88c-0.23,0.7,0.02,1.46,0.62,1.9c0.3,0.22,0.65,0.33,1,0.33c0.35,0,0.7-0.11,1-0.33l5-3.63
		c0.09-0.07,0.21-0.07,0.3,0l5,3.63c0.6,0.43,1.4,0.43,1.99,0c0.28-0.2,0.47-0.48,0.58-0.78l-2.21-1.56L17.58,20.84z"/>
</g>
<g>
	<g>
		<path class="st0" d="M19.75,21c-0.59,0-1.07-0.48-1.07-1.07v-5.36c0-0.59,0.48-1.07,1.07-1.07s1.07,0.48,1.07,1.07v5.36
			C20.82,20.52,20.34,21,19.75,21z"/>
	</g>
	<g>
		<path class="st0" d="M22.43,18.32h-5.36c-0.59,0-1.07-0.48-1.07-1.07s0.48-1.07,1.07-1.07h5.36c0.59,0,1.07,0.48,1.07,1.07
			S23.02,18.32,22.43,18.32z"/>
	</g>
</g>
</svg>
