<?xml version="1.0" encoding="utf-8"?>
<!-- Generator: Adobe Illustrator 24.0.2, SVG Export Plug-In . SVG Version: 6.00 Build 0)  -->
<svg version="1.1" id="레이어_1" xmlns="http://www.w3.org/2000/svg" xmlns:xlink="http://www.w3.org/1999/xlink" x="0px"
	 y="0px" viewBox="0 0 500 500" style="enable-background:new 0 0 500 500;" xml:space="preserve">
<style type="text/css">
	.st0{fill:#676767;}
</style>
<g>
	<g>
		<g>
			<path class="st0" d="M33.77,263.56H16.93c-6.03,0-10.91-4.89-10.91-10.91V157.9c0-6.03,4.89-10.91,10.91-10.91h16.84
				c6.03,0,10.91,4.89,10.91,10.91v94.75C44.68,258.68,39.8,263.56,33.77,263.56z"/>
		</g>
		<g>
			<path class="st0" d="M468.63,263.56h15.44c6.03,0,10.91-4.89,10.91-10.91V157.9c0-6.03-4.89-10.91-10.91-10.91h-15.44
				c-6.03,0-10.91,4.89-10.91,10.91v94.75C457.71,258.68,462.6,263.56,468.63,263.56z"/>
		</g>
		<g>
			<path class="st0" d="M481.52,301.57H17.87V94.3c0-47.99,37.4-87.04,83.37-87.04h296.91c45.97,0,83.37,39.04,83.37,87.04V301.57z
				 M45.87,273.57h407.65V94.3c0-32.55-24.84-59.04-55.37-59.04H101.24c-30.53,0-55.37,26.48-55.37,59.04V273.57z"/>
		</g>
		<g>
			<path class="st0" d="M427.27,426.77H72.12c-29.91,0-54.25-25.29-54.25-56.38v-96.81h463.65v96.81
				C481.52,401.47,457.18,426.77,427.27,426.77z M45.87,301.57v68.81c0,15.65,11.78,28.38,26.25,28.38h355.15
				c14.47,0,26.25-12.73,26.25-28.38v-68.81H45.87z"/>
		</g>
	</g>
	<g>
		<defs>
			<path id="SVGID_1_" d="M401.3,492.73h-65.31c-9.66,0-17.52-7.86-17.52-17.52v-72.95h100.34v72.95
				C418.82,484.88,410.96,492.73,401.3,492.73z M339.48,471.73h58.34v-48.47h-58.34V471.73z"/>
		</defs>
		<use xlink:href="#SVGID_1_"  style="overflow:visible;fill:#676767;"/>
		<clipPath id="SVGID_2_">
			<use xlink:href="#SVGID_1_"  style="overflow:visible;"/>
		</clipPath>
	</g>
	<g>
		<defs>
			<path id="SVGID_3_" d="M159.91,492.73H94.6c-9.66,0-17.52-7.86-17.52-17.52v-72.95h100.34v72.95
				C177.42,484.88,169.57,492.73,159.91,492.73z M98.08,471.73h58.34v-48.47H98.08V471.73z"/>
		</defs>
		<use xlink:href="#SVGID_3_"  style="overflow:visible;fill:#676767;"/>
		<clipPath id="SVGID_4_">
			<use xlink:href="#SVGID_3_"  style="overflow:visible;"/>
		</clipPath>
	</g>
	<g>
		<ellipse class="st0" cx="139.86" cy="350.17" rx="27.07" ry="28.5"/>
	</g>
	<g>
		<ellipse class="st0" cx="356.04" cy="350.17" rx="27.07" ry="28.5"/>
	</g>
	<g>
		<rect x="233.85" y="21.27" class="st0" width="28" height="266.31"/>
	</g>
</g>
</svg>
