<?xml version="1.0" encoding="utf-8"?>
<!-- Generator: Adobe Illustrator 24.0.2, SVG Export Plug-In . SVG Version: 6.00 Build 0)  -->
<svg version="1.1" id="레이어_1" xmlns="http://www.w3.org/2000/svg" xmlns:xlink="http://www.w3.org/1999/xlink" x="0px"
	 y="0px" viewBox="0 0 48 48" style="enable-background:new 0 0 48 48;" xml:space="preserve">
<style type="text/css">
	.st0{fill:#77AA5C;}
	.st1{fill:#DE6B1E;}
	.st2{fill:#E48825;}
	.st3{fill:#D73D24;}
</style>
<g>
	<g>
		<path class="st0" d="M24.9,11.9C24.9,11.9,24.9,11.9,24.9,11.9l0.4,0C25.1,11.9,25,11.9,24.9,11.9L24.9,11.9
			c-1.8,0-3.2,1.4-3.2,3.2v0C21.7,13.4,23.1,11.9,24.9,11.9z"/>
		<path class="st1" d="M24.9,18.3c0,0,0.1,0,0.1,0h3.1v-3.2c0-1.6-1.2-3-2.8-3.2h-0.3c0,0,0,0,0,0c-1.8,0-3.2,1.4-3.2,3.2
			C21.7,16.9,23.1,18.3,24.9,18.3z"/>
		<path class="st2" d="M36.5,11.8H25.2C26.8,12,28,13.3,28,15v3.2h8.5c2.4,0,4.3,1.9,4.3,4.3c0,2.4-1.3,4.3-3.7,4.3H37h-3.2h-0.4v0
			c0,0,0,0,0,0c-1.7,0-3,1.4-3,3.2c0,1.8,1.4,3.2,3,3.2c0,0,3.6,0,3.6,0h0.1c5.9,0,10.1-4.8,10.1-10.7v0
			C47.2,16.6,42.4,11.8,36.5,11.8z"/>
		<path class="st3" d="M25.2,11.8c-0.1,0-0.2,0-0.3,0c-1.8,0.2-3.2,1.8-3.2,3.6c0,0,0,17.6,0,17.6c0,0.4,0,0.8-0.1,1.1
			c-0.5,2.1-2.4,3.8-4.7,3.8c-2.7,0-4.9-2.2-4.9-4.9V14v0c0-1.6-1-3-2.5-3.5C6.9,9.8,4.6,11.6,4.6,14c0,0.1,0,19,0,19
			c0,6.7,5.4,12.1,12.2,12.1c1.7,0,3.3-0.3,4.7-0.9c0.2-0.1,0.4-0.2,0.6-0.3c3.2-1.6,5.6-4.5,6.4-8.1c0.2-0.6,0.2-1.3,0.2-1.9v0
			V15.4C28.8,13.4,27.2,11.8,25.2,11.8z"/>
		<path class="st3" d="M7.7,3.1l-6.7,9.3c-0.5,0.5-0.1,1.4,0.6,1.4H15c0.7,0,1.1-0.9,0.6-1.4L8.9,3.1C8.6,2.8,8.1,2.8,7.7,3.1z"/>
		<path class="st1" d="M25.2,18.2c0,0,0.1,0,0.1,0h3.4V15c0-1.6-1.4-3-3.2-3.1h-0.4c0,0,0,0,0,0c-2,0-3.6,1.4-3.6,3.2
			C21.6,16.8,23.2,18.2,25.2,18.2z"/>
	</g>
</g>
</svg>
