<?xml version="1.0" encoding="utf-8"?>
<!-- Generator: Adobe Illustrator 24.0.2, SVG Export Plug-In . SVG Version: 6.00 Build 0)  -->
<svg version="1.1" id="레이어_1" xmlns="http://www.w3.org/2000/svg" xmlns:xlink="http://www.w3.org/1999/xlink" x="0px"
	 y="0px" viewBox="0 0 1758 413" style="enable-background:new 0 0 1758 413;" xml:space="preserve">
<style type="text/css">
	.st0{fill:url(#SVGID_1_);}
	.st1{fill:#77AA5C;}
	.st2{fill:#DE6B1E;}
	.st3{fill:#E48825;}
	.st4{fill:#D73D24;}
</style>
<g>
	<g>
		<g>
			<linearGradient id="SVGID_1_" gradientUnits="userSpaceOnUse" x1="19.0696" y1="206.5" x2="1311.2107" y2="206.5">
				<stop  offset="0" style="stop-color:#F1CB1F"/>
				<stop  offset="1" style="stop-color:#25A17A"/>
			</linearGradient>
			<path class="st0" d="M148.11,66.83c-2.45-7.94-8.4-14.7-16.8-17.81h0c-0.2-0.07-0.4-0.12-0.61-0.19c-0.01,0-0.01,0-0.02-0.01
				c-0.41-0.14-0.83-0.28-1.25-0.4c-0.42-0.12-0.84-0.24-1.26-0.34c-0.05-0.01-0.09-0.02-0.14-0.03c-0.41-0.1-0.81-0.19-1.22-0.27
				c-0.41-0.08-0.82-0.15-1.23-0.21c-0.16-0.02-0.33-0.03-0.49-0.05c-0.7-0.09-1.41-0.16-2.12-0.2c-0.43-0.02-0.87,0-1.31-0.01
				c-0.44,0-0.87-0.02-1.31,0.01c-0.71,0.04-1.42,0.11-2.12,0.2c-0.16,0.02-0.33,0.03-0.49,0.05c-0.41,0.06-0.82,0.13-1.23,0.21
				c-0.41,0.08-0.82,0.17-1.22,0.27c-0.05,0.01-0.09,0.02-0.14,0.03c-0.42,0.1-0.84,0.22-1.26,0.34c-0.42,0.12-0.84,0.26-1.25,0.4
				c-0.01,0-0.01,0-0.02,0.01c-0.2,0.07-0.4,0.12-0.61,0.19h0c-8.39,3.11-14.35,9.87-16.8,17.81L20.8,267.62
				c-5.31,14.32,2,30.24,16.32,35.55c14.32,5.31,30.24-2,35.55-16.32l23.77-64.13h50.46l23.77,64.13
				c5.31,14.32,21.22,21.63,35.55,16.32h0c14.32-5.31,21.63-21.22,16.32-35.55L148.11,66.83z M109.36,187.85l12.31-33.21
				l12.31,33.21H109.36z M309.19,186.81h43.29v0c0.01,0,0.03,0,0.04,0c13,0,23.53-10.54,23.53-23.53s-10.54-23.53-23.53-23.53
				c-0.32,0-0.63,0.04-0.95,0.05h-42.39c-43.3,0-78.4,35.1-78.4,78.4v0c0,43.3,35.1,78.4,78.4,78.4h43.24c0.03,0,0.06,0,0.1,0
				c13,0,23.53-10.54,23.53-23.53c0-13-10.54-23.53-23.53-23.53c-0.3,0-0.58,0.03-0.88,0.04h-42.46c-17.3,0-31.38-14.08-31.38-31.38
				C277.81,200.89,291.88,186.81,309.19,186.81z M518.99,140.91c-7.53,0-14.22,3.56-18.53,9.07c-11.14-6.09-23.93-9.55-37.52-9.55
				c-43.3,0-78.4,35.1-78.4,78.4c0,43.3,35.1,78.4,78.4,78.4c13.39,0,25.98-3.36,37.01-9.28c4.27,5.9,11.2,9.76,19.05,9.76
				c12.99,0,23.52-10.53,23.52-23.52V164.43C542.51,151.44,531.98,140.91,518.99,140.91z M462.94,250.21
				c-17.3,0-31.38-14.08-31.38-31.38c0-17.3,14.08-31.38,31.38-31.38c17.3,0,31.38,14.08,31.38,31.38
				C494.32,236.14,480.24,250.21,462.94,250.21z M676.25,28.27h-0.33c-12.9,0-23.36,10.46-23.36,23.36v88.65h-19.83
				c-43.3,0-78.4,35.1-78.4,78.4v0c0,43.3,35.1,78.4,78.4,78.4h40.72c0.81,0.09,1.63,0.13,2.46,0.13h0.33
				c12.9,0,23.36-10.46,23.36-23.36v-0.31V163.76V51.63C699.6,38.73,689.15,28.27,676.25,28.27z M652.56,250.06h-19.83
				c-17.3,0-31.38-14.08-31.38-31.38c0-17.3,14.08-31.38,31.38-31.38h19.83V250.06z M1142.67,228.08c0-43.3-35.1-78.4-78.4-78.4h0
				c-21.27,0-40.54,8.48-54.66,22.23c-14.16-14-33.63-22.66-55.12-22.66h0c-43.3,0-78.4,35.1-78.4,78.4v43.24c0,0.03,0,0.06,0,0.1
				c0,13,10.54,23.53,23.53,23.53c13,0,23.53-10.54,23.53-23.53c0-0.3-0.03-0.58-0.04-0.88v-42.46c0-17.3,14.08-31.38,31.38-31.38
				c17.3,0,31.38,14.08,31.38,31.38v0.34c0,0.03,0,0.06,0,0.09v43.24c0,0.03,0,0.06,0,0.1c0,13,10.54,23.53,23.53,23.53
				c13,0,23.53-10.54,23.53-23.53c0-0.05-0.01-0.1-0.01-0.16c0-0.09,0.01-0.18,0.01-0.27c0-0.32-0.04-0.63-0.05-0.95v-42.05
				c0.05-17.26,14.11-31.29,31.38-31.29c17.3,0,31.38,14.08,31.38,31.38v43.29h0c0,0.01,0,0.03,0,0.04c0,13,10.54,23.53,23.53,23.53
				c13,0,23.53-10.54,23.53-23.53c0-0.32-0.04-0.63-0.05-0.95V228.08z M770.05,143.29c-30.56,8.38-53.25,35.11-56.55,66.62
				c-4.9,46.75,31.64,82.63,77.4,82.63c23.98,0,44.28-8.06,58.56-25.12c12.55-14.99,2.75-37.05-16.81-37.05h0
				c-6.62,0-13.1,2.55-17.53,7.42c-1.51,1.8-3.18,3.44-5,4.87c-0.07,0.06-0.14,0.11-0.21,0.17c-0.77,0.6-1.57,1.15-2.39,1.67
				c-0.08,0.05-0.17,0.11-0.25,0.17c-4.78,2.99-10.31,4.73-16.23,4.73c-1.79,0-3.53-0.2-5.24-0.5c-0.06-0.01-0.13-0.02-0.19-0.03
				c-0.87-0.16-1.72-0.36-2.56-0.59c-0.17-0.05-0.34-0.09-0.5-0.14c-0.75-0.22-1.49-0.46-2.22-0.74c-0.27-0.1-0.54-0.21-0.81-0.32
				c-0.62-0.26-1.23-0.52-1.84-0.81c-0.4-0.19-0.78-0.4-1.17-0.61c-0.46-0.25-0.93-0.5-1.38-0.78c-0.55-0.34-1.09-0.7-1.62-1.07
				c-0.28-0.2-0.57-0.38-0.84-0.58c-0.72-0.53-1.42-1.1-2.09-1.7c-0.09-0.08-0.19-0.15-0.28-0.24c-0.73-0.65-1.42-1.34-2.09-2.06
				c-3.68-3.93-6.48-8.8-8.11-14.25c-0.68-2.29,1.1-4.59,3.48-4.59l59.47,0c0,0,0,0.01,0,0.01l22.75,0
				c10.59,0,18.67-9.28,17.48-19.8C858.8,160.95,815.16,130.92,770.05,143.29z M817.05,203.32h-53.01c-2.61,0-4.39-2.68-3.31-5.06
				c2.06-4.55,6.51-11.24,15.92-16.1c3.94-2.03,9.75-3.45,14.4-3.45c7.87,0,16.21,3.37,21.84,8.41c3.78,3.37,6.13,7.83,7.49,11.22
				C821.34,200.72,819.62,203.32,817.05,203.32z M1287.68,148.02c-0.93,0-1.84,0.07-2.73,0.17c-12.09,0.98-21.59,11.08-21.59,23.42
				v50.45c-3.25,13.86-15.71,24.21-30.55,24.21c-17.3,0-31.38-14.08-31.38-31.38v-43.29h0c0-0.01,0-0.03,0-0.04
				c0-13-10.54-23.53-23.53-23.53s-23.53,10.54-23.53,23.53c0,0.32,0.04,0.63,0.05,0.95v42.39c0,43.3,35.1,78.4,78.4,78.4h0
				c10.81,0,21.1-2.19,30.47-6.14v19.01c0,17.3-14.08,31.38-31.38,31.38c-0.01,0-0.01,0-0.02,0v0.04h-41.65v0.14
				c-12.64,0.4-22.76,10.75-22.76,23.48v0c0,12.99,10.53,23.52,23.52,23.52h0c0.68,0,1.36-0.05,2.02-0.1h38.89v-0.06
				c43.3,0,78.4-35.1,78.4-78.4v-7.65c0.05-0.65,0.1,5.61,0.1,4.95v-77.33c0.53-3.67,0.82-7.43,0.82-11.25v-43.24
				c0-0.03,0-0.06,0-0.1C1311.21,158.55,1300.67,148.02,1287.68,148.02z"/>
		</g>
	</g>
	<g>
		<path class="st1" d="M1553.03,106.98c0.04,0,0.07,0.01,0.11,0.01h2.86c-0.92-0.1-1.85-0.15-2.8-0.15h-0.37
			c-14.64,0-26.5,11.87-26.5,26.5v0.35C1526.33,118.93,1538.28,106.98,1553.03,106.98z"/>
		<path class="st2" d="M1553.03,160.39c0.34,0,0.66-0.04,1-0.05h25.68v-27c0-13.69-10.39-24.96-23.71-26.35h-2.86
			c-0.04,0-0.07-0.01-0.11-0.01c-14.75,0-26.71,11.96-26.71,26.71C1526.33,148.43,1538.28,160.39,1553.03,160.39z"/>
		<path class="st3" d="M1649.96,105.78h-94.3c13.32,1.4,23.71,12.66,23.71,26.35v27h70.6c19.64,0,35.61,15.98,35.61,35.61
			c0,19.64-11.24,35.61-30.88,35.61h-0.71h-26.73h-3.49v0c-0.02,0-0.03,0-0.05,0c-13.98,0-25.31,11.96-25.31,26.71
			c0,14.75,11.33,26.71,25.31,26.71c0.34,0,30.27-0.05,30.27-0.05h0.71c49.14,0,84.24-39.83,84.24-88.97v0
			C1738.93,145.61,1699.1,105.78,1649.96,105.78z"/>
		<path class="st4" d="M1555.37,105.8c-0.82,0-1.64,0.09-2.46,0.13c-15.17,1.77-26.93,14.61-26.93,30.22
			c0,0.39,0.09,146.57,0.09,146.57c0,3.2-0.39,6.27-1.08,9.25c-4.24,17.94-20.32,31.34-39.51,31.34
			c-22.39,0-40.59-18.24-40.59-40.59V124.3v-0.04c0-13-8.11-24.94-20.51-28.87c-21.03-6.66-40.36,8.83-40.36,28.87
			c0,0.43,0.04,158.47,0.04,158.47c0,55.98,45.39,101.37,101.41,101.37c13.96,0,27.28-2.81,39.38-7.91
			c1.83-0.77,3.62-1.61,5.39-2.48c26.67-13.16,46.72-37.68,53.8-67.24c1.27-5.31,1.76-10.78,1.76-16.25v0V136.23
			C1585.8,119.42,1572.18,105.8,1555.37,105.8z"/>
		<path class="st4" d="M1410.02,33.17l-55.64,77.37c-4.24,4.26-1.22,11.52,4.79,11.52h111.28c6.01,0,9.03-7.26,4.79-11.52
			l-55.64-77.37C1416.95,30.52,1412.66,30.52,1410.02,33.17z"/>
		<path class="st2" d="M1555.82,159.21c0.38,0,0.74-0.04,1.12-0.05h28.76v-26.94c0-13.66-11.63-24.89-26.56-26.29h-3.2
			c-0.04,0-0.08-0.01-0.12-0.01c-16.52,0-29.91,11.93-29.91,26.64C1525.91,147.29,1539.3,159.21,1555.82,159.21z"/>
	</g>
</g>
</svg>
