<?xml version="1.0" encoding="utf-8"?>
<!-- Generator: Adobe Illustrator 24.0.2, SVG Export Plug-In . SVG Version: 6.00 Build 0)  -->
<svg version="1.1" id="레이어_1" xmlns="http://www.w3.org/2000/svg" xmlns:xlink="http://www.w3.org/1999/xlink" x="0px"
	 y="0px" viewBox="0 0 738.97 181.04" style="enable-background:new 0 0 738.97 181.04;" xml:space="preserve">
<style type="text/css">
	.st0{fill:#78AC5D;}
	.st1{fill:#E06A1F;}
	.st2{fill:#E58924;}
	.st3{fill:#D83F24;}
	.st4{fill:url(#SVGID_1_);}
	.st5{fill:url(#SVGID_2_);}
	.st6{fill:url(#SVGID_3_);}
	.st7{fill:url(#SVGID_4_);}
	.st8{fill:url(#SVGID_5_);}
	.st9{fill:url(#SVGID_6_);}
	.st10{fill:url(#SVGID_7_);}
	.st11{fill:url(#SVGID_8_);}
	.st12{fill:url(#SVGID_9_);}
</style>
<g>
	<g>
		<path class="st0" d="M647.11,59.37c0.02,0,0.03,0,0.05,0h1.2c-0.39-0.04-0.78-0.06-1.17-0.06h-0.16c-6.13,0-11.1,4.97-11.1,11.1
			v0.15C635.92,64.38,640.93,59.37,647.11,59.37z"/>
		<path class="st1" d="M647.11,81.75c0.14,0,0.28-0.02,0.42-0.02h10.76V70.42c0-5.74-4.35-10.46-9.93-11.04h-1.2
			c-0.02,0-0.03,0-0.05,0c-6.18,0-11.19,5.01-11.19,11.19C635.92,76.74,640.93,81.75,647.11,81.75z"/>
		<path class="st2" d="M687.71,58.87H648.2c5.58,0.59,9.93,5.3,9.93,11.04v11.31h29.58c8.23,0,14.92,6.69,14.92,14.92
			c0,8.23-4.71,14.92-12.94,14.92h-0.3h-11.2h-1.46v0c-0.01,0-0.01,0-0.02,0c-5.86,0-10.6,5.01-10.6,11.19
			c0,6.18,4.75,11.19,10.6,11.19c0.14,0,12.68-0.02,12.68-0.02h0.3c20.59,0,35.29-16.69,35.29-37.28v0
			C724.99,75.56,708.3,58.87,687.71,58.87z"/>
		<path class="st3" d="M648.08,58.88c-0.34,0-0.69,0.04-1.03,0.05c-6.36,0.74-11.28,6.12-11.28,12.66c0,0.16,0.04,61.41,0.04,61.41
			c0,1.34-0.16,2.63-0.45,3.88c-1.78,7.52-8.51,13.13-16.55,13.13c-9.38,0-17.01-7.64-17.01-17.01V44.58v-0.02
			c0-5.45-3.4-10.45-8.59-12.09c-8.81-2.79-16.91,3.7-16.91,12.09c0,0.18,0.02,88.44,0.02,88.44c0,23.45,19.02,42.47,42.49,42.47
			c5.85,0,11.43-1.18,16.5-3.31c0.77-0.32,1.52-0.67,2.26-1.04c11.17-5.51,19.57-15.79,22.54-28.17c0.53-2.23,0.74-4.52,0.74-6.81
			l0,0V71.63C660.83,64.59,655.13,58.88,648.08,58.88z"/>
		<path class="st3" d="M587.19,6.4l-23.31,32.42c-1.78,1.78-0.51,4.83,2.01,4.83h46.62c2.52,0,3.78-3.04,2.01-4.83L591.2,6.4
			C590.09,5.29,588.29,5.29,587.19,6.4z"/>
		<path class="st1" d="M648.27,81.26c0.16,0,0.31-0.02,0.47-0.02h12.05V69.95c0-5.72-4.87-10.43-11.13-11.01h-1.34
			c-0.02,0-0.03,0-0.05,0c-6.92,0-12.53,5-12.53,11.16C635.74,76.26,641.35,81.26,648.27,81.26z"/>
	</g>
	<linearGradient id="SVGID_1_" gradientUnits="userSpaceOnUse" x1="13.0253" y1="108.4212" x2="555.8084" y2="108.4212">
		<stop  offset="0" style="stop-color:#ECCC20"/>
		<stop  offset="0.0234" style="stop-color:#E2CA25"/>
		<stop  offset="0.1549" style="stop-color:#B1C23C"/>
		<stop  offset="0.2897" style="stop-color:#87BA51"/>
		<stop  offset="0.4258" style="stop-color:#65B462"/>
		<stop  offset="0.5635" style="stop-color:#4AAF6E"/>
		<stop  offset="0.7035" style="stop-color:#37AC78"/>
		<stop  offset="0.8471" style="stop-color:#2CAA7D"/>
		<stop  offset="1" style="stop-color:#28A97F"/>
	</linearGradient>
	<path class="st4" d="M53.68,69.34c-12.51,0-22.43,4.15-29.77,12.45c-6.62,7.44-9.92,16.43-9.92,26.95
		c0,10.27,3.31,19.08,9.92,26.44c7.43,8.21,17.35,12.32,29.77,12.32c12.42,0,22.34-4.11,29.77-12.32
		c6.71-7.36,10.06-16.17,10.06-26.44c0-10.52-3.35-19.51-10.06-26.95C76.01,73.49,66.09,69.34,53.68,69.34z M66.32,119.64
		c-3.08,3.21-7.3,4.82-12.64,4.82c-5.26,0-9.38-1.6-12.37-4.82c-2.63-2.87-3.94-6.52-3.94-10.96c0-4.58,1.31-8.37,3.94-11.37
		c2.99-3.28,7.11-4.92,12.37-4.92c5.35,0,9.56,1.64,12.64,4.92c2.81,3.01,4.21,6.8,4.21,11.37
		C70.53,113.12,69.13,116.77,66.32,119.64z"/>
	<linearGradient id="SVGID_2_" gradientUnits="userSpaceOnUse" x1="13.0251" y1="108.2886" x2="555.8071" y2="108.2886">
		<stop  offset="0" style="stop-color:#ECCC20"/>
		<stop  offset="0.0234" style="stop-color:#E2CA25"/>
		<stop  offset="0.1549" style="stop-color:#B1C23C"/>
		<stop  offset="0.2897" style="stop-color:#87BA51"/>
		<stop  offset="0.4258" style="stop-color:#65B462"/>
		<stop  offset="0.5635" style="stop-color:#4AAF6E"/>
		<stop  offset="0.7035" style="stop-color:#37AC78"/>
		<stop  offset="0.8471" style="stop-color:#2CAA7D"/>
		<stop  offset="1" style="stop-color:#28A97F"/>
	</linearGradient>
	<path class="st5" d="M220.36,69.35h-47.41c-6.02,0-10.92,4.09-10.92,9.12c0,5.03,4.9,9.12,10.92,9.12H201
		c1.59,0,3.06,0.58,4.03,1.6c0.78,0.81,1.14,1.81,1.04,2.83l-0.06,0.56c-0.24,2.08-2.48,3.7-5.1,3.7h-28.16
		c-5.91,0-10.72,4.02-10.72,8.95c0,4.94,4.81,8.95,10.72,8.95h16.84c1.82,0,3.33,0.9,3.85,2.3c0.44,1.17,0.04,2.38-1.08,3.23
		c-2.22,1.7-4.77,3.2-7.56,4.46c-4.31,1.9-7.64,3.14-11.87,3.88c-5.38,0.94-9.29,4.93-9.29,9.48c0,2.62,1.23,5.08,3.46,6.92
		c2.18,1.8,5.03,2.79,8.04,2.78c0.72,0,1.45-0.06,2.17-0.17c11.02-1.78,20.11-5.48,29.46-11.98c16.07-11.09,24.22-28.85,24.22-52.8
		v-4.05C230.99,73.33,226.22,69.35,220.36,69.35z"/>
	<linearGradient id="SVGID_3_" gradientUnits="userSpaceOnUse" x1="13.0267" y1="107.6074" x2="555.8053" y2="107.6074">
		<stop  offset="0" style="stop-color:#ECCC20"/>
		<stop  offset="0.0234" style="stop-color:#E2CA25"/>
		<stop  offset="0.1549" style="stop-color:#B1C23C"/>
		<stop  offset="0.2897" style="stop-color:#87BA51"/>
		<stop  offset="0.4258" style="stop-color:#65B462"/>
		<stop  offset="0.5635" style="stop-color:#4AAF6E"/>
		<stop  offset="0.7035" style="stop-color:#37AC78"/>
		<stop  offset="0.8471" style="stop-color:#2CAA7D"/>
		<stop  offset="1" style="stop-color:#28A97F"/>
	</linearGradient>
	<path class="st6" d="M352,128.77h-24.7c-3.52,0-6.37-2.69-6.37-6.01V92.22c0-3.26,2.8-5.9,6.25-5.9h24.08
		c5.51,0,9.97-4.22,9.97-9.41s-4.46-9.41-9.97-9.41h-43.7c-5.11,0-9.26,3.91-9.26,8.74v60.62c0,3.88,1.03,6.7,3.08,8.47
		c1.78,1.6,4.42,2.4,7.9,2.4H352c5.54,0,10.04-4.24,10.04-9.48C362.04,133.01,357.54,128.77,352,128.77z"/>
	<linearGradient id="SVGID_4_" gradientUnits="userSpaceOnUse" x1="13.0227" y1="107.7195" x2="555.8067" y2="107.7195">
		<stop  offset="0" style="stop-color:#ECCC20"/>
		<stop  offset="0.0234" style="stop-color:#E2CA25"/>
		<stop  offset="0.1549" style="stop-color:#B1C23C"/>
		<stop  offset="0.2897" style="stop-color:#87BA51"/>
		<stop  offset="0.4258" style="stop-color:#65B462"/>
		<stop  offset="0.5635" style="stop-color:#4AAF6E"/>
		<stop  offset="0.7035" style="stop-color:#37AC78"/>
		<stop  offset="0.8471" style="stop-color:#2CAA7D"/>
		<stop  offset="1" style="stop-color:#28A97F"/>
	</linearGradient>
	<path class="st7" d="M501.31,69.21h-51c-8.44,0-15.29,6.46-15.29,14.44v48.15c0,7.97,6.85,14.43,15.29,14.43h51
		c8.45,0,15.29-6.46,15.29-14.43V83.65C516.6,75.67,509.75,69.21,501.31,69.21z M493.59,118.21c0,3.48-2.98,6.29-6.67,6.29h-22.23
		c-3.68,0-6.67-2.82-6.67-6.29V97.23c0-3.48,2.98-6.29,6.67-6.29h22.23c3.68,0,6.67,2.82,6.67,6.29V118.21z"/>
	<linearGradient id="SVGID_5_" gradientUnits="userSpaceOnUse" x1="13.0263" y1="110.5936" x2="555.8005" y2="110.5936">
		<stop  offset="0" style="stop-color:#ECCC20"/>
		<stop  offset="0.0234" style="stop-color:#E2CA25"/>
		<stop  offset="0.1549" style="stop-color:#B1C23C"/>
		<stop  offset="0.2897" style="stop-color:#87BA51"/>
		<stop  offset="0.4258" style="stop-color:#65B462"/>
		<stop  offset="0.5635" style="stop-color:#4AAF6E"/>
		<stop  offset="0.7035" style="stop-color:#37AC78"/>
		<stop  offset="0.8471" style="stop-color:#2CAA7D"/>
		<stop  offset="1" style="stop-color:#28A97F"/>
	</linearGradient>
	<path class="st8" d="M138.69,95.4h-8.57v-0.01V69.01l0,0c0-5.86-5.03-10.61-11.24-10.61c-6.21,0-11.24,4.75-11.24,10.61l0,0v45.02
		v0v38.15c0,5.86,5.03,10.61,11.24,10.61c6.21,0,11.24-4.75,11.24-10.61V114.1h8.57c1.65,0,3.19-0.38,4.56-1.05
		c0.01-0.01,0.03-0.01,0.04-0.02c0.5-0.25,0.97-0.54,1.41-0.86c0.04-0.03,0.07-0.05,0.11-0.08c0.42-0.31,0.81-0.66,1.17-1.03
		c0.05-0.05,0.09-0.09,0.13-0.14c0.35-0.37,0.66-0.77,0.94-1.19c0.04-0.06,0.08-0.12,0.11-0.18c0.27-0.43,0.51-0.87,0.71-1.34
		c0.03-0.06,0.05-0.12,0.07-0.19c0.19-0.48,0.35-0.97,0.45-1.49c0.01-0.05,0.01-0.09,0.02-0.14c0.1-0.54,0.16-1.09,0.16-1.66
		C148.6,99.58,144.16,95.4,138.69,95.4z"/>
	<linearGradient id="SVGID_6_" gradientUnits="userSpaceOnUse" x1="13.0273" y1="110.5936" x2="555.8045" y2="110.5936">
		<stop  offset="0" style="stop-color:#ECCC20"/>
		<stop  offset="0.0234" style="stop-color:#E2CA25"/>
		<stop  offset="0.1549" style="stop-color:#B1C23C"/>
		<stop  offset="0.2897" style="stop-color:#87BA51"/>
		<stop  offset="0.4258" style="stop-color:#65B462"/>
		<stop  offset="0.5635" style="stop-color:#4AAF6E"/>
		<stop  offset="0.7035" style="stop-color:#37AC78"/>
		<stop  offset="0.8471" style="stop-color:#2CAA7D"/>
		<stop  offset="1" style="stop-color:#28A97F"/>
	</linearGradient>
	<path class="st9" d="M274.15,95.4h-0.02h-8.55v-0.01V69.01c0-5.86-5.03-10.61-11.24-10.61c0,0-0.01,0-0.01,0c0,0-0.01,0-0.01,0
		c-6.21,0-11.24,4.75-11.24,10.61v83.17c0,5.86,5.03,10.61,11.24,10.61s11.24-4.75,11.24-10.61V114.1h8.57
		c0.38,0,0.76-0.03,1.13-0.07h0.02c0.02,0,0.04-0.01,0.07-0.01c0.58-0.07,1.14-0.18,1.69-0.33c0.03-0.01,0.06-0.02,0.1-0.03
		c0.49-0.15,0.95-0.33,1.41-0.55c0.09-0.04,0.19-0.08,0.28-0.13c0.41-0.21,0.79-0.45,1.16-0.7c0.13-0.09,0.26-0.18,0.39-0.28
		c0.32-0.25,0.62-0.52,0.91-0.8c0.14-0.14,0.28-0.28,0.41-0.43c0.25-0.28,0.48-0.57,0.7-0.88c0.13-0.18,0.25-0.37,0.36-0.56
		c0.18-0.29,0.34-0.59,0.48-0.9c0.1-0.23,0.19-0.46,0.28-0.7c0.08-0.24,0.15-0.48,0.22-0.72c0.09-0.33,0.16-0.66,0.21-1.01
		c0.03-0.24,0.06-0.48,0.07-0.72c0.01-0.18,0.05-0.36,0.05-0.54C284.05,99.58,279.62,95.4,274.15,95.4z"/>
	<linearGradient id="SVGID_7_" gradientUnits="userSpaceOnUse" x1="13.025" y1="111.7217" x2="555.8075" y2="111.7217">
		<stop  offset="0" style="stop-color:#ECCC20"/>
		<stop  offset="0.0234" style="stop-color:#E2CA25"/>
		<stop  offset="0.1549" style="stop-color:#B1C23C"/>
		<stop  offset="0.2897" style="stop-color:#87BA51"/>
		<stop  offset="0.4258" style="stop-color:#65B462"/>
		<stop  offset="0.5635" style="stop-color:#4AAF6E"/>
		<stop  offset="0.7035" style="stop-color:#37AC78"/>
		<stop  offset="0.8471" style="stop-color:#2CAA7D"/>
		<stop  offset="1" style="stop-color:#28A97F"/>
	</linearGradient>
	<path class="st10" d="M409.62,59.52L409.62,59.52c-6.21,0-11.24,4.75-11.24,10.62v83.17c0,5.86,5.03,10.61,11.24,10.61l0,0
		c6.21,0,11.24-4.75,11.24-10.61V70.14C420.86,64.28,415.83,59.52,409.62,59.52z"/>
	<linearGradient id="SVGID_8_" gradientUnits="userSpaceOnUse" x1="13.0242" y1="111.4398" x2="555.8063" y2="111.4398">
		<stop  offset="0" style="stop-color:#ECCC20"/>
		<stop  offset="0.0234" style="stop-color:#E2CA25"/>
		<stop  offset="0.1549" style="stop-color:#B1C23C"/>
		<stop  offset="0.2897" style="stop-color:#87BA51"/>
		<stop  offset="0.4258" style="stop-color:#65B462"/>
		<stop  offset="0.5635" style="stop-color:#4AAF6E"/>
		<stop  offset="0.7035" style="stop-color:#37AC78"/>
		<stop  offset="0.8471" style="stop-color:#2CAA7D"/>
		<stop  offset="1" style="stop-color:#28A97F"/>
	</linearGradient>
	<path class="st11" d="M392.39,67.72c-0.45-2.07-1.54-3.93-3.07-5.37c-0.25-0.24-0.52-0.47-0.8-0.69c-1.94-1.51-4.44-2.42-7.15-2.42
		c-2.72,0-5.21,0.91-7.15,2.42c-0.28,0.22-0.54,0.44-0.8,0.69c-1.53,1.44-2.62,3.29-3.07,5.37c-0.07,0.35-0.13,0.7-0.17,1.05
		c-0.04,0.36-0.06,0.72-0.06,1.09l0,0v26.37v0.01h-8.57c-5.47,0-9.91,4.19-9.91,9.35c0,0.57,0.06,1.12,0.17,1.66
		c0.01,0.05,0.01,0.09,0.02,0.14c0.11,0.51,0.26,1.01,0.45,1.49c0.02,0.06,0.05,0.12,0.07,0.19c0.2,0.47,0.44,0.91,0.71,1.34
		c0.04,0.06,0.08,0.12,0.11,0.18c0.28,0.42,0.6,0.82,0.94,1.19c0.04,0.05,0.09,0.09,0.13,0.14c0.36,0.37,0.75,0.72,1.17,1.03
		c0.04,0.03,0.08,0.05,0.11,0.08c0.44,0.32,0.91,0.61,1.41,0.85c0.01,0.01,0.03,0.01,0.04,0.02c1.05,0.51,2.2,0.86,3.42,0.99
		c0,0,0,0,0,0h0c0.37,0.04,0.75,0.07,1.13,0.07h8.57v38.08c0,5.86,5.03,10.61,11.24,10.61l0,0c6.21,0,11.24-4.75,11.24-10.61v-38.15
		v0V69.86l0,0c0-0.37-0.02-0.73-0.06-1.09C392.52,68.41,392.47,68.06,392.39,67.72z"/>
	<linearGradient id="SVGID_9_" gradientUnits="userSpaceOnUse" x1="13.0205" y1="117.0857" x2="555.8084" y2="117.0857">
		<stop  offset="0" style="stop-color:#ECCC20"/>
		<stop  offset="0.0234" style="stop-color:#E2CA25"/>
		<stop  offset="0.1549" style="stop-color:#B1C23C"/>
		<stop  offset="0.2897" style="stop-color:#87BA51"/>
		<stop  offset="0.4258" style="stop-color:#65B462"/>
		<stop  offset="0.5635" style="stop-color:#4AAF6E"/>
		<stop  offset="0.7035" style="stop-color:#37AC78"/>
		<stop  offset="0.8471" style="stop-color:#2CAA7D"/>
		<stop  offset="1" style="stop-color:#28A97F"/>
	</linearGradient>
	<path class="st12" d="M542.7,59.34c-6.21,0-11.24,4.75-11.24,10.61v76.01v3.13h0c0,0,0.03,0.46-0.04,1.08c0,0.02,0,0.04-0.01,0.06
		l0,0c-0.05,0.45-0.17,0.97-0.38,1.49c-0.46,1.14-1.38,2.21-3.31,2.21c-6.11,0-11.06,4.67-11.06,10.44s4.95,10.44,11.06,10.44
		c0,0,0,0,0,0l0,0h3.68c0,0,13.8,0.72,19.78-11.94c1.54-3.27,2.57-7.41,2.7-12.7c0.01-0.36,0.03-0.71,0.03-1.08h0.02v-9.02V69.96
		C553.95,64.09,548.91,59.34,542.7,59.34z"/>
</g>
</svg>
